<mxfile host="app.diagrams.net" agent="Mozilla/5.0 (Macintosh; Intel Mac OS X 10_15_7) AppleWebKit/537.36 (KHTML, like Gecko) Chrome/133.0.0.0 Safari/537.36" version="27.0.6">
  <diagram id="C5RBs43oDa-KdzZeNtuy" name="Page-1">
    <mxGraphModel grid="1" page="1" gridSize="10" guides="1" tooltips="1" connect="1" arrows="1" fold="1" pageScale="1" pageWidth="827" pageHeight="1169" math="0" shadow="0">
      <root>
        <mxCell id="WIyWlLk6GJQsqaUBKTNV-0" />
        <mxCell id="WIyWlLk6GJQsqaUBKTNV-1" parent="WIyWlLk6GJQsqaUBKTNV-0" />
        <mxCell id="onYP9hCPlnCMmtd_44-D-6" value="" style="edgeStyle=orthogonalEdgeStyle;rounded=0;orthogonalLoop=1;jettySize=auto;html=1;" edge="1" parent="WIyWlLk6GJQsqaUBKTNV-1" source="onYP9hCPlnCMmtd_44-D-0" target="onYP9hCPlnCMmtd_44-D-5">
          <mxGeometry relative="1" as="geometry" />
        </mxCell>
        <mxCell id="onYP9hCPlnCMmtd_44-D-0" value="" style="ellipse;whiteSpace=wrap;html=1;" vertex="1" parent="WIyWlLk6GJQsqaUBKTNV-1">
          <mxGeometry x="354" y="-140" width="120" height="80" as="geometry" />
        </mxCell>
        <mxCell id="onYP9hCPlnCMmtd_44-D-1" value="" style="shape=image;verticalLabelPosition=bottom;labelBackgroundColor=default;verticalAlign=top;aspect=fixed;imageAspect=0;image=data:image/png,iVBORw0KGgoAAAANSUhEUgAAAzAAAAFMCAYAAAAUd1mIAAABXGlDQ1BJQ0MgUHJvZmlsZQAAKJFtkL1Lw1AUxU81tSDFDyjo4BDRQaSK1BbctBb8AIdQFbRO6WtthDR9pPGjuzgJEnATRKh/gujiIE4uToIUxT/AWciiJd7XqGnVB5f743De4XKANknlXJcAFA3LTM/PymvrGTn0iiB6aTrQp7IyTyrKElnwvVuf84iA2A9jImtopn5fC6fnTga1642do8O//pbXmcuXGe0PmlHGTQsIjBAruxYXvEccMekoYpEVKXh8Jjjr8UXDs5JOEd8R9zBNzRHXiKPZJr3QxEV9m33dIK4P543VZdpdNANYgAIZGcQQh0Hd/O+NN7wplMBRgYktFKDBop9JUjh05IkXKYFhHFHiGCZoEqLj3935WukcmHKAdtvXssfA1QHQ/+Rrw6dA9z5wectVU/1pNOBI5c3JmMfhaSD44rpv1GnIBuq2675XXbdepfxn4KbyCZSEYpp3jyKeAAAAVmVYSWZNTQAqAAAACAABh2kABAAAAAEAAAAaAAAAAAADkoYABwAAABIAAABEoAIABAAAAAEAAAMwoAMABAAAAAEAAAFMAAAAAEFTQ0lJAAAAU2NyZWVuc2hvdEllu2cAAAHWaVRYdFhNTDpjb20uYWRvYmUueG1wAAAAAAA8eDp4bXBtZXRhIHhtbG5zOng9ImFkb2JlOm5zOm1ldGEvIiB4OnhtcHRrPSJYTVAgQ29yZSA2LjAuMCI+CiAgIDxyZGY6UkRGIHhtbG5zOnJkZj0iaHR0cDovL3d3dy53My5vcmcvMTk5OS8wMi8yMi1yZGYtc3ludGF4LW5zIyI+CiAgICAgIDxyZGY6RGVzY3JpcHRpb24gcmRmOmFib3V0PSIiCiAgICAgICAgICAgIHhtbG5zOmV4aWY9Imh0dHA6Ly9ucy5hZG9iZS5jb20vZXhpZi8xLjAvIj4KICAgICAgICAgPGV4aWY6UGl4ZWxZRGltZW5zaW9uPjMzMjwvZXhpZjpQaXhlbFlEaW1lbnNpb24+CiAgICAgICAgIDxleGlmOlBpeGVsWERpbWVuc2lvbj44MTY8L2V4aWY6UGl4ZWxYRGltZW5zaW9uPgogICAgICAgICA8ZXhpZjpVc2VyQ29tbWVudD5TY3JlZW5zaG90PC9leGlmOlVzZXJDb21tZW50PgogICAgICA8L3JkZjpEZXNjcmlwdGlvbj4KICAgPC9yZGY6UkRGPgo8L3g6eG1wbWV0YT4K1V0jdgAAQABJREFUeAHsnQecHVXZxt/NbnovJIRASOi9dxEj0hQVBVEQKWKviAWsH1hRFAUbiqgIigoKCIogIL1I750QWnpPNpvt3/lPcpazs2funbt77+7d5Hnz28zcmXPOnHlOe9t5p2bq1KntJhICQkAICAEhIASEgBAQAkJACPQDBAb0gzqqikJACAgBISAEhIAQEAJCQAgIgQQBCTDqCEJACAgBISAEhIAQEAJCQAj0GwQkwPSbplJFhYAQEAJCQAgIASEgBISAEJAAoz4gBISAEBACQkAICAEhIASEQL9BQAJMv2kqVVQICAEhIASEgBAQAkJACAgBCTDqA0JACAgBISAEhIAQEAJCQAj0GwQkwPSbplJFhYAQEAJCQAgIASEgBISAEJAAoz4gBISAEBACQkAICAEhIASEQL9BQAJMv2kqVVQICAEhIASEgBAQAkJACAgBCTDqA0JACAgBISAEhIAQEAJCQAj0GwQkwPSbplJFhYAQEAJCQAgIASEgBISAEJAAoz4gBISAEBACQkAICAEhIASEQL9BQAJMv2kqVVQICAEhIASEgBAQAkJACAgBCTDqA0JACAgBISAEhIAQEAJCQAj0GwQkwPSbplJFhYAQEAJCQAgIASEgBISAEJAAoz4gBISAEBACQkAICAEhIASEQL9BQAJMv2kqVVQICAEhIASEgBAQAkJACAiBut6AYEBtrY0YN9n9bWhDR0+wusHDksfWlPnh7WvLa1m9yhqWL7SVi+e6vznW1tpa5iepOCEgBISAEBACQkAICAEhIAT6AoGKCzAjxk2yyVvubqM3mu4El6E2bOhQGzJokFlNucWXtfC1t9vqpiZb1dBgLY0Ntmz2izbnuQecIDOvL/DVM4WAEBACQkAICAEhIASEgBAoIwIVFWDGTdncNtv9LTZk1ASbuMEGtvnUDW3DCWNs2GAeWyEBxtqtobHF5ixcai+8PNfmDx9toydubC88+F9b8trzZYRORQkBISAEhIAQEAJCQAgIASHQ2whUTIAZOWEj22yvQ2zk2A1ti2mb2K7bTLVxo0e496uxNmclqSSNddadjSaOtelTNrCHnn7Znp812LbY82B7unGVrVg4u5KPVtlCQAgIASEgBISAEBACQkAIVBCBiggwtXWDbNMd97cRYyba9E03sd22m5q4jS1btdqcgSRO3qUsj3CTpPUWHFdgLI+7PXTIoOTZrS7JzPa2pE5P3X6VtbY0xeugq0JACAgBISAEhIAQEAJCQAhUNQIVEWBGT5pqYyZPt7Hjxtv0jSdYS1u7LVnZEAfCCSOt7n7L2o32A2sH2AAvzERytDkLTnNzi7U5IQRZaEBdnQ0aOMjWhFPrLB3Vu/sD6wYkdViyfKXbEzPdqNvi9ciVbMKECbbzzjtHkOz+pUceecQWLlyYFFDrAjR84xvfsDrXDiG1tLTYt7/9bWvtJwEUxo4da7vttlv4Csn5K6+8Ys8++2yX65W+MGTIENt66627PGbu3Lk2b966tZ9rww03tL333rvLuzY3N9u1117b5bouCIH+iMCkSZPskEMOsZ122snGjBljQ91+0Ca3X/PBBx+0n//85yW90lZbbWXbbrttSXlKSXzddddZY2NjkmXatGk2evToLtkfffRRpzvsvOZ2SaQLZUFgjz32sClTpkTLYo5krsxDhx12mA0ePLhTUtbqf/3rX52urY8/NtlkE2Ncpenhhx+2RYsWpS/rdxUgUDN16tSyz0Cb73GQTdvlTTZt06m22cbjnMsYRpKuj2l3YkeTG3iD21bZSLevf8CAWltlQ6ypvdaJKan0TqhpbnHiS1O9TRhaY+NGDkngW7xytS1a1WZtg0YkwkraGlPj8g1w1piZry62WS+9bLMevtVeuP/GHkMPg3n88cfb0UcfbRMnTrRhw4bZwIEDbdmyZQbT+9xzz9kdd9xhV1xxRY+f1ZMCvve979lxxx3XkyK65L300kvtK1/5SnIdxp8BHiMWavDoD/R///d/9qEPfahLVV977TXbb7/9ulyv9IVPfvKTdvrpp3d5zMyZM+3Nb35zl+v9+UKhPrrDDjvYihUr+vPrqe7rOQLDhw+3P//5z5mKpJUrV9r2229fEkpXXnllVOFSUiEFEn/gAx+w22+/PUmBAifN9HLj3e9+dyJ8FShGt8qEAMJiTIik+D/84Q/G+lWMBgwYYC+++GI02S677GJLliyJ3ltfLv7tb3+zPffcs8vr/ulPf7KvfvWrXa7rQt8j0FltXqb6DB8zyQYNGuoEijqrX93itPBtnUquceJJqxNoGl2446mjBth+O29qE8aPTVzBrnvwZZs3f6UNHljbkYf0Ta6METWNtu/WG9i2m21qNc7qQiSz9uZGe/bFV+yuZ+bb0oZBNshZcNpTwk+tu0ZdqBN16ynB6GJ1QDhKEww9fzDvRx11lH35y1+2D3/4w8YEJFo/Edhxxx0NgSRNt956q/3lL39JX05+s9jEKNbnYul0TQj0ZwS6M2aq9X2vuuqqqGa3Wuubt15Zc1Te/EpXHgROOOEE++lPf9rhFVGeUlWKEKh+BCoiwAx01gmEhhYndKxsaLI2TDABsSel1lpt7+mj7Y07b2nNtUOd4LFGGGhyss4Kl6el9fWqIezUWZvN2HOqbT59qr04b7nd+uizVutMKzN22dy23mpLa6sdZP984BVrcFad2pRgMcCloy6JIOPq1hM6//zz7W1ve1vuInAbuOaaa+zqq6+2z3zmM7nzKeG6gwAWk1ifwWSdJcCsO2+vNxECpSOwrowZXH9ibimlI6IcQiCOAEotXBCPOeaYeAJdFQLrKAJxNW8PXxaLCdHGGt1elfoG9+esMOHf8pWNzsJSZ3vtuI099Gq9Xfyfh205G/wdEQJ51ermzunrm2zwoIE2etw4W7BstV1997P26Mx5dv+zc+3G+9fsT9h86kY2yFlZlq9s6pQ3ea6rA3WhTmvqljyq5P+YIGKMaJ6C3vnOd9qJJ56YJ6nSCAEhIASEwDqAwCc+8Yl14C30CtWOwL777pt4fVR7PVU/IVBOBF43c5SzVFcWblxNbs9Kq/uX3v+CS9nKxja75Oan7YlZC2zccLcJf603FvtcGhpbXQmvy1Zsn5m/tMku+PdjLoJYmxNQmp1L2CBrXOU2GbasCQ6wqtkFCqhHUGlN9tyEr4OGgnxp17IwTbFzNqt/5zvfKZas4P0zzzzT2By5rm3CznrpdLtnpdN1ISAEhMC6iAAW+Cx69dVX7Zlnnsncl5CVT9eFQAwBvEPe8IY3xG7pmhBYJxGoiADT3uaEFvdHBKq2diSTzi5kILlo2Sqbs2BFEoGsdpRz61qbpLWtzUXUaLWBa13KPOr1LlLGsrWRzAa6/TFYajYY2moH7jQ1SXLjAzNt4RK3d8Z9JJOoGp3J7ZVZWyeO3SE267NJP0ZEa7nnnnvsoYceMtyC3vGOd7j9Nm6PTorwGb7wwguT+6lbffLzW9/6VreihN1yyy0d9WXj37ve9a4uUciIrrN8+fKOdDoRAkJACKxvCGzgPuAcoxtvvDEaNCSWNnYNZdiuu+4au9Vx7Zvf/GbHeXiyYMGColHPHnjggTCLzvsBAhtvvLG9973vtcsuu6wf1FZVFAI9R6AyAgy2Dmc2STTwmE+8dJKq78CBbsN9E8IO1pE11O72y3TkDdIjBg2sIzZZjTU4C8y4Ic127IztbNNNpthtj71itz38UrInxmXuKCvI3lFm/G6YMn7+wQ9+MHoD4eWAAw4wwtt6IqoSG7RHjODDnZ0pFhq3c4re+/W73/1uTRv18JEIbuUmIvdst912Nnny5CSMMVHdehqSmchxRBTDmkZ5s2bNKne1+6S8zTff3Pbaa6/knWiLnuLES7AY4pZA9CFwIvrZ7Nmz++T9KvlQlBLbbLONbbbZZjZnzpzkXefPn1/2RxLYg4hq45wb7PXXX2+rV69xmY09iDpRn0033TQZn/fff39FIgTxnN133z0ZZzC1tDPjolDdYvVNXyMqI5vwmevq6+vthRdesOeffz6xPFe7VRZrPZGIqDtha0eNGpWEUKVvEIjl8ccfT79uwd/MOTEKlUCx+8WuEcqev0KEkBML+vHyyy/bRRddVChrt+7xrm984xuNufvuu+8uu6cB5bMmuMipxpjAglWMaL999tnHNtpoIyOiJFG4mMvaHM/REwJX+gh9hfFCufTzvo7khdD697//vSxrQE/wKWdeP0ejDKDt6L+F2o/006dPT5TJRNAjKmw5if7NmstcTgj0cihqe6s/lTqGeFciJDKfwzf5fg6meUN3lxP7dFmVEWAQIhKLh5skapgovHiSfry70+6EF/eHgAKtEV7WXFtz5fX/vfAycViLfeCgHWyrzTez2594xf52y+OuQ5uzejiByJXVlbDAuDKpUyJQdU1R7AoDIkannHJKJ+GFNHwjhTDDP/vZz7pkgSEk5PKqVau63OuPFxgQt912W9K5w/rDRCPYpZmhr3/96/b2t789TJqcf+QjH0mYg5NPPtlOPfVUGzlyZJc0YPbrX//azjvvvNztyALzta99zbbYYosuZSJ8Et70jDPO6PKsnl7g2ztEoIO23HLLaHFs7uX5EHgRrS6NVzSju8heLMpnYWbCDokJlRCoBI3IK8wwgcLwvPWtbzUWiliEIfCH8WKRDAX28NnVfs570t4HHnig4d5D/40RDD1hNelvhZgS3DYQHkNijqF82oFQ64TgZMx7OvTQQ+3pp5/2PzuOLBIoPzhSz5CwaBKW/VOf+lSyeMfGHAs7oW0LEQzgOeecY9OmTetUpzAPQgwM7h//+MfwcsFz+vIvfvGLpK+n6+4zggtM9/e///2EwfXX/bHSY8Y/J3ZkfgAXokfG+r7Pw5wBc/6FL3whM+oTbejXi6zQt5/+9Kc79lMSJvyjH/2of0S/OsLgMB/zHSeEhZBgcBD8TjvttGh7+7QnnXRSNMANa+h//vOfREhgLUWZ5elXv/qVnXXWWf5npyNWCPDl+1Kx8M8wv1iYzj77bLv33ns75S30g7akHvRTzmP9nHnjH//4R9LH+4LBY54hQipzeU+INeXOO+/ssq5TJmtElpKHfvyxj32sy6NR6H7+85/vdJ31jr800a5geOyxxyZrHN9MShPKhC996Uud5lE8QXgGip+QaG8YbvoT79RdIvosayrKqJC8AEu45UsuuSS8VfC8nP2pnGMI3uvcc8+1N73pTV14i/CFUCCw/vFZjUICZZin3Od15S4wKQ8hwf1hTTEXPaygAJMIFU648BVpxyLTYu2tr++B4Rb3VzU22ZSRNfb+g3a0LTebbtc/8KJdddsa4YWgAG1un0tq3V9bKgLMmjpRr1KJiSo2EbIgo02NEZHHYgIMadF6+hj7sbz96RofY8vy8wazNENOVJ5wIfLvCpNPKEg0z1nE5Ixwg7CDmx7amELERFoofjv1Y+CjSYsxlIXKLnYPprbY92N4fpiGCS2NV+w5RJzh/bMIRuLwww83sCZdsT1XMJ9MQlnuLv454I/gxMfQfvjDH9ovf/lLf6tfHGHaca/I6q/hS4AFG7D5Y+/bb37zm/B2xzlWFT4WmyawgsnK65MOw5Fl5aVsXFIRivjm0vvf//7oO/DMQlTsGT4vY/G73/1uwlzwrEKWNxgd3vOggw7y2TOPzKN8b4LIewhbvE/I5FVyzGRWyt34yU9+YkceeWShJB33GLMzZsxILAAwwLExgBBZrC1grvmDuqtU66hUH51guWTeAJMY0TewltDeYAxTFCM+yBkbQ2i5YXBhyPMQwhTfRIl9yyPMj4BKmssvvzwRkAhxH/bDMK0/Zx798Y9/HHUN92k4Mm9QZwL+sP6gdOhtIlgQvEdPPr7IfJM1T8LAZwkwWW2JUiZNzAUxXoC0rMuxD0v7MlA0/POf/0ysa7wn3iTMJzGivRFq6Ksw3ChQSiV4kyOOOCKaDSUY7806QfRE2r8YQ1/u/pSFe6lj6LOf/azxl1aKxl4cLw3WCb5BBE9QjB+LldHTa52lhJ6Wtjb/GjewtRaPxPLBefZfYj4J86bSEoa5qanZpo6usZMO2yURXm647xm76qb7raal0YbVtlhtm3PJaG9xRSE4xZ6F9YXrpQswWV/AxT2iUEfNWpjoVKLOCLAfp5DwEqbGNY9FMaYBIx3XWcgKCS9hebhKFWIew7R9fY5mt5DwEtaPBYgFFCtNFjHZouUsJryE+VkQ+MhmT7V8YZmVPgczrEdZi3Kh52M1LDWaFFa/vMIL5eftfzCLpWj5eC80av/73/9yP8NjQV8Ds/Hjx/tLXY6//e1vcwkv6YwwtnxBPGsMp9NX6jdY5hVewjpQb8ZA3jkmzLuunMO8ZAkv6XdE8YQQUwqh6MsrvMDs4j5bTHhJP/+QQw6xf//73wX7IcwxSqPYvtZ0ef43axQaebTYlaQY/8H8nKU8rWRdylU2VutCwot/Dkw2VnKUaVnCi0/rj8zjMNulEEqcLOElXc5b3vIWu+uuu7pYI8N0vdmfShlDeL9gWc4jvITvwxzAGIopIcJ0lTivjADjBAUGVquzrrQV+WPTPvaVEUMGJe/nxp5zeyH/63kbnfvE6GF19pF37mObuoUP2mbjMXbqUXva6cfsY587ck875cg9bMr44W5zf2OnvL6cNXVxAkzUxSwpMvM/TPyPPfaYPfnkk53+sqwvFITfYNbiTDmizgjEXMY6p+j8C0Y0a3FjIM6YMaNzhvX0F4tuloscGmCY56x+WgwymG6CW1Q7saCjLe/ue/J+uOuV0kcJm56HUGZgUSyFimn302Xh4uO1/el7xX6zODHP4f+cJhb2njBoWP66ow1N16O7v9FU4+baE0LLjkuRqDgCWKawMuelgw8+OG/SRAOfV5hKF4rFEVfRGOGOBlPaXULAR1ivFGVZhlGexKwelapHOcvNcuuNPQMlS6lrUKlKh1LXDaxKWcJ6b/envGMIayqWlO4SbXbllVd2N3u381XEhQzLQ2LtwOKRCAzZVo8ad59wy4++OM+GuG+9rGhodiGV1+T3b4UQUldXawvdtpFlryx04k67SzvEho8elpyTDs+wmlrnRubStieRz3xujs6FbG1dsqwiYer0+bJly6L7NtLpwt9+/0N4zZ+XuhHU5yv3EStFKXjg9kYUtWoh3Jmw3ITEZPPFL34xvNQn55jY2bcAodHImgR9Gtohj/tY+mV8+2WVT3q0jCzu+O+HxOJXKJ+vWyHNI1rYK664Ivdem/D5vXX+8Y9/vKBLD3t7UFLgghILvOHriVCMa2g56Qc/+EE5i+tSFgtTIQaM/kO/oH9k9QWsc5/73OeSPSLhA7AyxQjlFVpINnySF1eRLAGK/UBYMqDeGjM8C4GsGCMDNrgWFer/lIV2ns3rntgsTjRKKIsZAyM/vrDkrwvEO6EsyCL6VyWsVvTN9L6EsA7Ui3YsJODQD9kfFioXmbe//e1vh0V1OWfOpn9kvTdl4GYY2/fZpbBuXJg1a1YyJ8Ws8jw37JfdKH6dzII7GfNiud3GQ7CYc1Gyhu7b1dyfmAuz5n/GBK7L3lUOd7UYIaizhvbmfFYRAcb5aTlBos1tf3HHIntg6ly45KUrVtmFV9+zBhMniAyqG7Am/1qUCKm8ZPkq+9WVhTdgIcQMTuVdU4TbEEtdqFMiUMXgL981GMasiYMJr1o28JeqPcUVqdICzH//+99kMzCbLGF+YJLYnBcjooCkiU2EhTTUlI+5k4mfSQZrTTEGJf2MPL/ZhMgfhE8pptk0YdXr7sLGJnpM7URZYfFECwUzHJuEuI/P8H333ddRBdqeazEiCAWaIqLqQEz2F198cdT9CqaAjZOY8auVsrRQMO5YEYho5AkmhnaL9YmeCjDMPwRV8OOfCb+Qy8tLL72UfDeKDftoU3H3K9VMn6Wh5X0Zy/htw6jTb7BoMh5ifQhLA3sYfFCIQsIefTHElGdRNvVPE4wnWnmURJUeM+GzWbCzhAsECzbr4lpJm9HH2cDLZvQYNrQjyhRc4qBwPxCuezHhDW1nqa6AYf2r5Zy+Q79gHxRrG/0Ttx404zHK61YZy8s1nsefZwyxirJhP0a0I0F2fLuwN5DxQFSyGBHEgQ3qnlCOZfUR5lIseJ5Zw8WIOTAmJDF208KRf0Y5jvRLBLD0nEW/POqoo5KoZOV4Tm+WQRvjasUYRNlw0kknJYq4QnVgUzltwCct6GcEA4i1B2WAC8q3Uoj+jRKXOiEEgXlWgB7mCepywgkndDyiWvpTegxRQVzNYoQFMa0kBlv2E8UIzwMfmCh2v9zXstUlPXiSs7u4ScYJDMlks8YK87oFpOvvFreo812X1Y3NxjlCRjp9m7ve6PbBNLo0HUd3Th7+uM7ims7nf/u6ULdKEoxhljma5zLRi+IIeD99mB8GGRpZFiCux4jJKb3AwHhkEQMRtyc2chN9hgmOjcPFNnBmlddX1xFe2LeD8ALBZP31r381JpssSu/jwnUsRjD1CN9eeCENmiquecY7ne8973lP+lJV/c7aW8UCmWa00TYhMMQIJqRUAjsYLKwQMHVEu2IDO1RIu4twi3sTEa3Yx+SjnZUSspwAAzAxMbrggguS5zPOII6Mjx/96Eex5AkjgADnKYsRpS8SxSxNMAtZ4yxkGtP5KvEbTSiCWozo//vvv38iOPIuENfQZiPUZ1FPP3KcVW61X8e6iQADcweh/EBh4K1L6fqX4obp8xLND0UWc9A0F4iDccTYhQptOH7f+97XIbyQlnK4ljWG0CzTNzxluSYx7zLneeGF9AjfWYo27pfqJkqevMS8nDVu6Zcx98+8ZfdVOvBiPkIYIXIYvwtFEEMBQr+76qqrkgiZhJIu1B6x4AGF3pU5AF4BJQz8A8IJigoUe1nE/B0qPPqyPxUaQ/BQWZ4HsSAUtENsjgeHUvcXZWGX93pFLDAYOZKN/MmGeRbIuNDQ4u43NzfZABd5bIAzkrS6ZM01dTbITSK1XEhRrZNqnTeY6xQunXM7a3J515TtooS5PDXuX5aBxdcn637qUd36iZaukB8hEw3+6KKuCMAsEDYxRtddd10SpjN2DwbNM/JM1FkLJOFbYww+IXLRDvelL37svQpdQ3vsmaswHVFZYlpu0qStUlkTOO4wMUGFCRxmOsaoYSpn4c9iUMM69sU5E6536fHPB7/YRlc0yFlWkSw3EV9m+ojgDcPkhYT0/SxTPMwg+dKEgua4445Lwo3nqUvWhw59W6bL5zftj7UlHRKXe2jXbrrpJk679KfkovuPeqGdxspJoA0YEN4fvLE2xixIWQylL7PcRwTRLPxgjL12P/1clB64UiCMpolAB8w/3kKVvr8u/kaRwtycJuYBrIcx7XQoIKTzxX4zPxPZKSuUeZZSgfmeb3TECCUW7ZgmmE2E9BtuuCHp/1l1zRJGUH6goY95X4TRJtPPLcdvlKaM23TADeZ9hL+0Fr0cz6xUGbjz0gZpQomTpTj5/e9/32Xdoj2Y62JWGKKnlkJY6hGS0gTvgKAybdq09K1EeGHdQWHFfNpX/anYGCo0ZzEf4g6MgjT8fhmWpZhikO999SZVRIDpsKC4cMhrKCXAuImiqaXFBte02E7Txtq20ybayOFDnZtYvT01a749/dpya26rs4FuQeiy+Lu8jc2tNmbIANthyw2szi2Y0HPz6m3OkoaO32ue6/9HsHGhmddIVv5i2Y50TPaTZA0uHsR7+G84lO3B61BBixcvzlz8YYKyKNRwFIruVmivASZPXLxKicSVVZ9KX4cR9Exk+lksyvSzEBOfJu1ekKVxQXjBHSZGWRMwz2Mjc9qaESujL64RJjVGLCowG7jIIUxgsWBjeQy/WP5C19BAF9LYkzf2fQOuwwSF2l2ueeI6wgFhsotRFnNHGxeyemRpz8PN6oW+1A7DgPaTP/oj32Cgb7AA8tdlTi/2ImW+T3jxGFEv3IgKEVYztLsxAm8sZ+sLoTDJIoTSmACTJThmlYMgnyW8kCfLwtjQ0JA5j5Eva55kPoB5ztoATz7aOWtsZVk7+LhrpQlrFJHP0oTAhrImxoCn01bDb3iBGIVeAen7fJspRnyXh3C/aaqry8/6znLu5oXWNr5/hUUmRvQjBJi+7E/FxhAKhyxBj7UQvtbztlhYUQ7cfPPNyd7XrHUqhkUlruVvxRKenixQbqD745pvwbxeANaToXXt9t437WBv2sfFB68Z5DbvN9rIoYPtkKYGu/6uR+wfdz3nrCztXSwxLc5M0+YsL4cdsKMd8ka/ELXbBVfcbjPnzuyIZvb60zjjA5dOiPJ16nyzR7/4hgg+vzGNZVgwGw3Zf1FNlGBSQoUKLSQlFBNNyobfLEKbl4eyNNq8ZyHzM2XPnDmzXwgwaKeyiPdkIkq71ZG+xSkMPOGTn8Wko1HqDsFIFJrku1NmJfIgVHzgAx9IhJaYZq5czywWqANGJ+v5Me1wWC8sAXkEGOamGLHvBG1mqRTOcQglWYteWC79jL7BH+GKWSxhNljw+RhdX1DW3i8YvGJWxELWIvzI1ycBJsuNhDbN0sTGLMdZfQBL5DPPPJN1O7meJRiwzyVrr0uhAn3I+aw+Qn/uzthBcKu0hQ53H8ZUuu48GwEm3I9RCIO+vhfzAKBOhda+rHGXZV0opR8W4x0KKXNQiv3rX//q0iYe40r3pzxjiLowztL9xtcxPGJBZ+8wfyhzcJFmPPj9vmHa3jivjADjtMREA6OT1Jjb0xK4kMFk8U2Xw/fezt607+62YFmDnf+3a23OgqW2y9ZT7eQj9re3ztjbnn1tmd379Gs2bG14ZQ9Gw+pG23vLiXbI/rvaS/OW2qDaATZ5wqg1+23WPtOnff3ohKm1deJYLiLyBxNDFjPIc9BmYnLmewrVRvgSlyrEVOodvBtYT8rPEmDQxhUjBiJfk652Wrp0abeqGAo1MReYbhUaZAqZ2+By1ZzmVTSUq8J+n0tWeTHttE9baEEkTSHG0ZfBMaZ5DO+Xep4WuIj2F3PDK1QuVjxcLvjDksHXtLOYjELl9ORelmCHtrYYUVfm9LRFk3x5GIBi5fen+yh9SqVSNN/F5joY83BeK7UusfQEp4CyLCyxPHmvMUdWUglIPXAjw+UnzZNgWYKZ7s9USOgodQ4phe9BWVOICo0D7xXSV/2p2Bjy74XrOZ4upVhI6WPwXHzkEy8H3Ox68vFUX5dSjmv8r0rJkSMtnaPdCROxPwQboozVN7fbrQ8+Z3+45g575NmXbcHSlXbzfU/ac7NedU+osfHjRrsN/c7ty5fj3L8aGptswvA6e+8he1ljS41dfM2dNm/RGoYuSdfqtuj79FlHV7dyEOEg8RdPTxRh2fhSsyG0GoWXsJ7VcF5M85mnjlnuBHnyFmM485TRG2kKTeJ5nx+LipQ3b1a6LNeJrPS9eR3GEtel3hSyMLUXoiwXPvKsXLmyUNbo/qdYBs+Mxe6V49rVV1+dRL4rhRkIn9tXEZKymN7QShnWM32e9b6F2jRdxrrwuxxzUSEc2HhciEr5pkyhcsJ7noGL7dUK03Xn3Jfdnbx588yePTvTxbE7lqO8z+1v6bLGcOw9sDQXIsrKGgs+uEVf9adiY8i/F7wqAoivr7+e94gbNhbAtJIrb/7upquMAJNEIVvjQsa+ExrY/7n99048Mbvpf0/Zb6681QkvL9nIQQNssDXZFpOG2RRnTVm5utmeenGusWnf52tpcRadlmZ7677b2OQNJ9nf/vuAPTnzdQvNmnSdn+XzdqpDYA3qDmgILOx3yfKr92WiXcSEnbUh1KfTsXwIELUsRnm0ft51IJZ/XbuW5WPMezIRd+dvzpw5VQkT45UNnoUUDVQczRGb7gnmEPMjL/XlsvaR+HIKucYUc31hn04eKrQYdaeNY9o1onMRLAA32izXj0J1Je8xxxxTKEnZ72VpTGNh2WMPz1qk2TQsKh8CxbTqhfZ0sPZ3p4/zDR+oEOPXnXKZDwqNx/KhZsn3jWJMd7ktsrE696aSKPb8SlwjZHIxylpfvGdJX/WnYmMofC9ce7EUsV+4mAIuzOfPCRjR21F2K+JCZs760eYijGFtcSKIf7/kiPDCFY5MBONHDbX3HLCdjRkx1DbdeJLNXbjMLrn2P/bcqwttxNBBa8uosYbVTbbj9PF2mHMdmzVnkV1/5yPOkuPijlEQlExYPBeXta60xoXMPTnjftcc8SuEjJzhIpVkERMH0cjYiCvqXQSy/GBx98B1pZCVh/C26wsRPSiLwKGUSS+rnGq5jttElvaLReXMM880LAlh38jakFnOd8Kfm/kvppVFgCn0/ZZwM32hOrHBMvbu+Cuz4bdchFsMQTD4QxOHJg8XMRb+2Puln4v7AhHLeouYJ/DhTlNWUIUwHRH3sqjQ/pisPLrefQQYPwgqMeaR74HxvY7uUpY7IQpJwulWM8GDEDHym9/8ZrerCa5ZlGXBJH1svskqp79cL+TuyztgCYz1Qe499dRTHKy/9CfWfpRS/NGWRIYlPDXzepbiJnnBtf8V4o3DdOU6r4gAs8bysWZyQbAIqdMvZ50Z4CSQMeMn2rjRI2zYiNE2yEUimzK61ubMJ1JZq4sq5o4O1OGDauzIGbtZTe0g++O1/7OFS5bbxHFu70sSqtnF6neRyZqaW7rsmfHP7lQnf7HEI36khWKL01mJ9V1os1mJj1TyEhAotPmZ7xVk+esj3FQ6zGUJr1HxpERVySJCCBeK+paVr1qvZ7UrizzunTEtbtZeqnK/I8+OfUGcOqPNilk0uE444zyEVSymPSzHHii+d5UO2UqdiJDnQ8mzqLOvjCg4LIJZIc574vqZB4d0mqzgASzQfIS4EOPLR1uzSAJMFjKVu46QHnPdg5Eq1I7FapQVVCYraECx8nr7/kUXXZR4iRQSuAvVKTb3+PR8U4xIVDGC0e0PVEhAS9efb64xN8SsWqQtpAzyAkw19yesLrF2o43hmTzfxH4e5nLWn6zPMKCwInR0sX1DaYy7+7uyAozTkKQJiwkyDftZ6ESLltXbeZde7/a7tNnk8WPsM8cdap84/l126TU32zV3Pm1WV5ts+t9/ty1su603tweefMGee/45Gz/MbeBzYZjXBAkwJ+C026jBruDEZS39VC4jUK0VqrreLnoFxuG3v/1tZjo+aNTdCE5oXNlQnyY2lmtRTKOS/TvLNYQcaOTQKsSsC2iOs0IEZz+t53f6at8IrnYsUPTpNPGNmSwGmevcTxPuETC0pSwK6TIq9Tvrmy64+8SEFybgYhq3ctWVL0fHBBjahY+l8d2UkBAIsMzk7asIEzF3NAQGXLdicwvP4GNwMcYHVzz/kd4LL7wwupEdFzzva09/QBj2AjF7AWPzXGxDfPje4Xk5xkzW90F4zhlnnJHJ+KJ5Zt9OjBgDhdxEYnl0recIwCDGxvgRRxyRfGk9FuYVd+HLL788+oFHNsHDuBEi2gviYS0ZHzCsbFyOEd/J4gOHaSIqYdY3utJpy/Wbzzbg2tldyrIQE4L92muv7VIsbvWFrDNdMvSTC6wJBBuJfQONufj444+PvgnzH3uSoGruT2effXY0zDPBZIgc6Ykw1lj2+OO7QieeeKK/1ek4bdq0/i3AIKGsERacANPJ5OLCubowyEMH1dk2m29g7rNf9vycFbZoxSo3mQywh5+ZZXc+8IS977D9bN9dt7eb7n/e7YdpdMJHu227xdQEpK03mWhnfPSdyfdealzH2mCDCcn19x+2r+24+UZ2wT/uSb4xU+fKC+n1+qQqFCYqcM7ElmVCw/2EfQWnnnpqgRJev4ULR8hsMxnGGAb8J9FcivIhwITBZvyYRhffXGKXo2ENfZEJb/2JT3wi3wPKnKov/YVZpNEspQn3JCan9OKNVuXHP/5xlHlGGKqU8HLNNdckUZ/S9Sz2G0GLsM5ZYzbLXQgf3qxFGOalnPSTn/yk44vi6XL5bgAMP3PFrbfemvgmwzjF5ol0Xv+bvHzELk28Bx8mw9KT9nVG25ZloQmF/yzrDt+cQMiB+UkTQhnBT9JUbL9QmL4cYwaXN/p/zBWPfQL0Ob60HmpcYXph2rKEx54wiuH76bw0BGiTmACDVQam8cADD+w0NzEf0FZYEWLk3WtxFSOYRsy6g8ILKx7jMySEpixmti+CxPBBWZhQwnt3h1gnY0ouFFngzveoPOF5Ehvb/n61HUtdr4gkC58Xfk8Oi/KNN96YucaEn82o5v5EX459pwYlF+tNbB83377JEmC80NYbbV4xCwyuXYnVI9nt8vqrtLrIYs0ugti7D97Ptpm+of3jhnvsrzfc6xaLNps6fohtPnlsknhVY4utbnLfrnDyhpNTbOZrC23MqFfcAlJngweOsEbHrA500cxqBw5ak751gC1vWrvp3+1zaUszG25BTerk8nWHCm00ZVGDEc5LaBzDgZA3n9IVR+CUU06xK6+8MpoQdxo0dpg3Ybr5HZugo5krcBFmCcvdLOfShQAM8xgyiRV4ZEeR7P0gMleMmJgOO+ywZJEiDCOMHl/DzmLgmcQrRTGNfZ5nbb/99okAg+aT/Rhpolz2uiBEwIyzyKNhK+Q+lmc/R/o5hX5jIaHtpzmNVYyoI/NKKXNLWA4LT+y7EKSBkYPBgQmDmccShGY1S0BiweeDr54oN+aeRv4nnngi6ctYePD9pv8gLIXaPF8Ox2LfzAnTlmvMoJ0mak6MiFrHPhkUSCzGfHEa94ms9kfQYTyJeh8BAup8+ctfjjKRtBteDHyHAxcexhNWzSylBuMlZNawdmYpJXkuY4BvhDAv8qG/GBPoEeGL5n1BKOcITpI1dxeqE9jttttu0SQoerA48odwnzU2opmr4GKpAgxVxsJ08sknJ3M2Si4UpYXeO+2tUK39if3axx13XJdW4d2wnjPvs1bxPT7mfPo6AmuMEHoLfXA0lqcn1yoiwCRSR+Ku5b4Dk5IXat2elpXOb/XaO5+wrTfbxI445I229aZs3l9im0/dKPGfw73s6lvuTzTlQ5PvwNTYTfc8mvz54pqccDNm5DA763PH2IQxo+zv/7nbfQDzURsxbMiaj1+2d97MjwUG97IuJqEc6OH3WonQszkerSQlIoB7CH9ZEy+DMsZ4lfiYkpJnbeCjEFyv+IOYKMIFNLlYof9YnFjYsr59AyOKNr0YIQhWs+aNCTgrYiAfteQvL2UxPnnzx9J95jOfSTT+sXvluIa2mL0AMQaGsYCGmr9iRPCS0B3nggsuML6DFSOUAqX0iVjUt0qPGZQYCPCHHnpo7BUSJheGtBBT6jOCTWit8dd1rDwCKHxQRHz961+PPqyQ2186Q9rFC88INO8xKwx5EXTzfPsHQee6665LP65XfrOeXHrppVEGtVgFiKSatY6SF2toOSyixepRTffpT7H9Iuk6srZ6a56/V639Cc8UBI+Y5wFrBMJNTMDx7xUes5RCYZpynnf2sypTyS2tzYQYcx+XXLPnxLtveSFikLOi3PngE3bWhVfZg087qW7adDtgv71s9PiJdvcjL9jZv7/G7n/8eedjXdvhitbiJqpmt0m/Ze0f0cYand/xo8+8Yk+88KotWLIicTULn/X6uYuIhvDi6pTUrcT3zHKpKLEYJe8lBNCuxlxYeunxXR4T22vQJVEfXGBSSk+ypVQDjLHWIMRUK6FdioX/7U59K6HEgLnxe0by1qkUZhkrQqGN53meSf+FSQ+JevMdrJ4S5cAopak3xgzCXU/7LvuY2Fsn6jsE0GxjZekJ0b/piyExv2GVLMXFMczPOQF9iMrXl8S+rtBtOm9dcDMt9k2qvGVVW7ruWGDyvgOuZswtaarW/kTfyCugpN8p/E1f6a63QFhOKecVEWCa6pe7aMV8yNIJMMkf7mSv/zmLq3P/qrV7H33Wfvi7q+yLP7zYvnD2xXb6OZfYuZdcbQ+5jfrcx+Pc56OiWG/832AnBCHU/O7K/9pZv7nSnpn1mg13YZd9+s7HNfWgTtStVMojcZdaptJXDgHcPrBq5P0KLZNZmkErZ+2wduT9eno5n1usLCZaXMOyXMkK5UfwISrfvffeWyhZn99j0cDKknfBQjjIstjg+onlodzExndcVPMIJjBEp512WklVuOKKKxLXh1I3mftxkRV5Ec03X/3uLuG6l+VW1htjBiyZJ2LBHPK8E25JM2bMyJNUaSqMAGP2nHPO6RQOPc8jGXMoYXAljRF7Vwi57b/nEUuTde22225LXFP7Oiop83x3XBzJBzbMoXmI96zkOpqnDnnT5H0nykMJlnf9oFxCD2dF4arW/sR+UbY15H3PNM4I+ewB6+2+XhEBpn7JPGtpaXJCTIvbwoIVJvXnGpnvwwwdPNCla7E5CxbZrNec/+nCxUlarnP/9chhqfzesuPKwQqzuqkxKcfl6Pos0ro6UBfqRN1KpbwfOMtbblrrl/UF6KzreZ9Dup5oj/I8p1AdY/ey6lOIeSs0qBoaGqLVZKIgXn8xTS4DDleYrH0csXeIPrDIRTR5mPILvUtYRJbGLAs/n5dFJ0ZZ5dEXidBGsAj2Y+ShSy65JIluhfa5HFTsnbrzjPB9n3/++SSymv9IXVZ5MCm41KHNDfOH6dnLEVLWnqX0GA/zxM75iBibkdnoTj3C8UCfQfjA4sF+kqyoXVljgefhw4y7C9aePIs3Viv2QWUxdv4dWKzxCy9FCECxQFQfIqRl9VfKL3XM+DqVciQiH/ufiLCWBxfKpm3YL4XwUqj+pM3q21n9izzloqy5JuxbeZ6V1ccLvUPWvdh8mpW21HriooPLE/u68hAWF9q+WHrWEuZHhKQ8FgnanL0zbOgv9R2y6h3DjbRZ2KXLwT0ZhUEWZbUxjC1CPvsfChFR3ZibstbbWD2zsMm6ntWfqVdW/bPKir1L1liFN2CeSwc8SZfBvE1gHPYWFqJK9KcYvtShlPfHksz6h+Cdl8AMCyihmFlne5tq3EYkv62kbM+uHTjYpu36Zhu74SZWN2ho1P+6bA/LURAdv6WpwZbMfcVmPXSztTY35silJOsKAnxoitCWWBvYBAxhpcF1Bcaut4lNj3xNncheTLwwuwhSTBzFGKJK15UN5UzCLOxshGc/AxMTCxn7SVj0sxaLStetHOXDiPD9FzbrIwiwr4P3IyxwltasHM/tThlEuaGOaRc4NocSFTFNeS0CtCnti4AP00GbE5mLtmXxxapSbLFOP5vfbHRnPw34ssGVuvu+DbZs7uQZt+RkMMNn9MaYwd8bbfu73/3uZGwyb+AXjmAIPvQT3GqKMShhvXXeNwjwjSIEZJQCfMyWPX0oXAhYgbKA+Szc05W3lvQR9kXB6BGliZDr8BcEoiDiF2X35ibmvPUuRzr2ArNnjD2kKHWZbxjPCC2lWnfLUZ++KGOPPfZIeAnmN4I3ITjQ3t3dv1qt/Yn5FsGV/k3wC/gm9lEyF8I70fYIbERs7EuepSICDB1rxPjJNt0JMUOGj3KRwpxFxb18QmUXl9YU2+V//zg3ubQ6rfTqVcvtxQdvtpWLsrUQXcrQBSEgBIRAhRDgS8exD+OhbWVxyCIEABaVNLFxtJSgBOn8+i0EhIAQEAJCoL8gUKEoZJYICq8+fZ9N3XYvGzh0hNXW1TkhxnmsrRUsKg4QQcec+1irYwaaGurt1SfvlfBScdD1ACEgBPIigOk9K8oPG38J0ZomoiLFhBfSraua3zQG+i0EhIAQEAJCoNaZyc+sFAyrly+2hhVLEjeyAXyvxVlDiAaW/Ln9K/gcV+TPueW0tTRbc9NqW7Fwjr321P9s2dxZlXpNlSsEhIAQKBkBXJRi36ihoMMPPzwx1xMGtc4pf3Btwq8+Heo1fCjffFhfXDnC99a5EBACQkAIrH8IVMyFLISybtAQGzFuw+Rv8PDRVpd8fLJSphi336W5yRrrl9nKxXOTvxYnyIiEgBAQAtWEAN9Q4IOJ5SA22WYJQ+UoX2UIASEgBISAEKgmBCrmQha+JALEUmcB4U8kBISAEBACllhL/vKXvyQhlHuCB1ZsPogpEgJCQAgIASGwviBQURey9QVEvacQEAJCoDsIEKJzypQpScS37uRHeDnhhBOq/ns83Xk35RECQkAICAEhkIWABJgsZHRdCAgBIdALCNxwww3Jh04JWUn41zxE6FaEH0L+VuNHUvO8g9IIASEgBISAEOguAr2yB6a7lVM+ISAEhMD6hMCGG25oRx99dEfsfb5fwbcC+IAe3yLheyr//Oc/kwhlWF9EQkAICAEhIATWRwQkwKyPra53FgJCQAgIASEgBISAEBAC/RQB92EWkRAQAkJACAgBISAEhIAQEAJCoH8gIAGmf7STaikEhIAQEAJCQAgIASEgBISAQ0ACjLqBEBACQkAICAEhIASEgBAQAv0GAQkw/aapVFEhIASEgBAQAkJACAgBISAEJMCoDwgBISAEhIAQEAJCQAgIASHQbxCQANNvmkoVFQJCQAgIASEgBISAEBACQkACjPqAEBACQkAICAEhIASEgBAQAv0GAQkw/aapVFEhIASEgBAQAkJACAgBISAEJMCoDwgBISAEhIAQEAJCQAgIASHQbxCQANNvmkoVFQJCQAgIASEgBISAEBACQkACjPqAEBACQkAICAEhIASEgBAQAv0GAQkw/aapVFEhIASEgBAQAkJACAgBISAEJMCoDwgBISAEhIAQEAJCQAgIASHQbxCQANNvmkoVFQJCQAgIASEgBISAEBACQkACjPqAEBACQkAICAEhIASEgBAQAv0GAQkw/aapVFEhIASEgBAQAkJACAgBISAEJMCoDwgBISAEhIAQEAJCQAgIASHQbxCQANNvmkoVFQJCQAgIASEgBISAEBACQkACjPqAEBACQkAICAEhIASEgBAQAv0GAQkw/aapVFEhIASEgBAQAkJACAgBISAEJMCoDwgBISAEhIAQEAJCQAgIASHQbxCQANNvmkoVFQJCQAgIASEgBISAEBACQkACjPqAEBACQkAICAEhIASEgBAQAv0GAQkw/aapVFEhIASEgBAQAkJACAgBISAEJMCoDwgBISAEhIAQEAJCQAgIASHQbxCQANNvmkoVFQJCQAgIASEgBISAEBACQkACjPqAEBACQkAICAEhIASEgBAQAv0GAQkw/aapVFEhIASEgBAQAkJACAgBISAEJMCoDwgBISAEhIAQEAJCQAgIASHQbxCQANNvmkoVFQJCQAgIASEgBISAEBACQkACjPqAEBACQkAICAEhIASEgBAQAv0GAQkw/aapVFEhIASEgBAQAkJACAgBISAEJMCoDwgBISAEhIAQEAJCQAgIASHQbxComADztre9zc477zy74YYb7BOf+IR95CMfSf4OOeQQGzx4cEUBuuyyy+y5555L/oYMGVL0WaWmL1pgLyZ4wxvekOB81VVX2R/+8Af78Ic/bFOnTu3FGqzbj3rrW99qjz32mJ1//vn94kXPOecce/bZZ+29731vv6hvf6vkddddl/SHTTbZpL9VvVfqe/vttyf4DB8+vFvPY5wx3hh36yLdcsst9sQTT9i0adP6zeuVMgceddRRyfzzk5/8pOT3+973vpe0/fHHH19y3mrNwFr8+OOP22233VbRKvYWdoxrxifjXCQE+hqBukpV4Nvf/rZNmDAhKf7LX/5yl8e8+uqr9va3v92WLFnS5V5PL2ywwQY2aNCgpJja2tqixZWavmiBvZCA97rpppts+vTpnZ42Y8YM+8Y3vmF/+tOf7Ktf/Wqne/qRjQALzYknnmjPP/+8/fnPf+5IOHHiRBs1alQXnDsSVNnJYYcdligI3vOe9xiCebVQFr7VUr+89dh4441t5MiR1l0GPe9z+mu6DTfcMJl76+q6t7QwnzHeGHelUk1NjX3ta1+z1tZWO+uss0rNXvH0vJOfrw8++GD7zW9+U/FnluMBpcyBRx99dDL/MA+deuqpJT0eoY62nzJlSkn5qjnxQQcdlMwXzBmTJk2yefPm9ai6b3rTm+yAAw5IFMP33HNPR1m9hR3jmjbKoxjuqFw/OMnCtR9Ufb2uYvdWmTJABiOAVgKGe9GiRWUocf0q4m9/+1vHYjhr1iz797//bY2NjXbggQfaTjvtZMcdd5xtt9129q53vWv9Aqabb7v33nsn1qu5c+d2EmC6WVyfZfvc5z5nH/jAB+xb3/pWn9Uh9uB1Bd/Yu+ladSAAc4WlH6pGAWb+/PmGZWLzzTdPFEzVgVp5a4HS7IwzzujXc2g5EUGRuMsuu9iLL77YY+GFep1wwgmGUIRyOBRgylnn9bEs4do/W71XBBgY6fr6ekNowcXp/e9/f6KlQZKH4cJiECM0au3t7bFbNnDgQGtubo7ey7pYqLysPP56d56XlQcXOoSN7tJ3vvMd22233ZLsH//4xxPhxZfFAvm+973Pzj77bNt1111txx13TEy+/r6O6zYCuGzyJxICQqD6EDj33HOrr1JlrNHMmTMTS3YZi+zXRbHOf/azn+3X76DKC4FqRWBAb1YMt7EzzzzTfv3rX3c89o1vfGNy/s1vftOeeeaZ5I99MjfeeGOitUBz4QmzO3s9SIerD8crrrgiseL4NOkj7mHkoRwsFWgt8rpWDRs2LNGY3XvvvcnzKIN6eS2ff1ZYd/akXHPNNcnzqOMjjzxi++67r1HW73//++Q6exSoO/sV0rTRRhulL3X5jZkeQruD5SVNf/3rX5Pncv3rX/96p9tYaC644AJ78MEH7eGHH7bf/va3Bt4hHXnkkYavNhMv2nze+amnnrKbb765Q3B65zvfmVjQeA8saaeffnpYhCFkUQbvjsB65513JmVQ34997GMWc+3D95k9BvgMUzdcoPbff/9O5dKWlIvJ/I9//GOSlvf1hEXvwgsvtEcffdRoNzDeZptt/O3o8corr0xcT7iJuwTlx3DFzExafNjvuuuupGyEVE8I6OT93e9+Z/Rr+gH4+AUMAZp3xHpGGeBKXxw7dqwvouO4xRZbJFrk//3vf8m7UCb9vxjhQkMdfNqwTigScI/Dh5l++Ze//KXDzZNyw3ZHQL7++uuTNsPf+f/+7/86pSU99ae90oQbEXVgTxaUF19fTth3vvKVr9itt96a4EgfOumkk3yy5PjLX/4yedbWW2/d6To/eC718O4OYbm4uNI/aAf6GRrNAQMGJP2A6/R33u3www/vUi4XSEuf92lp02OOOSaaNk+f9HWjv//4xz+2Bx54IGl3XyBuuH4c0ifo4yiAihHjjHf1GJKXeQh3Fk+l9BGfZ6+99kpcoBhnjFXmlDz18fnZQ4Tfvm+Df/zjHxZrQ5++2HjA4ohLrSfanT/yeSpWBukKtYO/x5zW3f7DmKNeo0ePTqoVllmsr5OhlDkkecDaPPQdFBvkD4k5ivowZkPCvY3r6TYpNgeylpAvvcbyvl/4wheSMcXYoj/+6Ec/StbF8Ln+nDWW+pKWI/to8xDvxxzBmGYdYc744Q9/2GUN6A3cqS9zO3iEbslcP+KII5L1wa91zB877LADt6Lk51TPL+GiR7kxHiIPdt3pR9GKrb3I/MkaxfzCmkfdfvCDH3Ra58P15aMf/WjCN8ALoWSFcDPGckoZzMv0TcYs/BXl+Xdf+0jLM6+SlvWfcQfPQ7nM656HKgVX/1wdqweBGtdp4iaOHtaRBdjvgfEWGF8kTOJ9992X/ERDsdVWWyWLoWekV69e3cF0YIGZ5phVBmwo+PiyOJKG/QtMihCM9mabbZacL1++PLqwXnTRRYmpO53e1xUGhUGz6aabJuWk/0OT5jcqMtn7uq9cudJGjBjRKTmWohdeeKHLJEqiSy65pEPIuPjii40FgoH27ne/u1MZ/ge+tEx6EIsLWMWIBYP7vP/TTz+dJGFiZzKI0fe//59N+oYAAEAASURBVP2OjeoIPUyCy5Yt61hofR6wvvTSSxMXNX/NH8N9Nyw6tOvLL78cDSrAwoJg4wmmCuEqRl/84hft8ssvT24hFCI0LF261MaMGZNce+mllxK/YIQDFqY0tbW1JZuCPQ7p+0yi6cAS5MFfnX4FcwSOYJ9mAMhL24MLE/E///lPa2pqMtxZ6EOQb2MYeibdNLEPbJ999uloS3BDePD5w/QIEl4wCK/7cwQ8LG8sHjD3YZ1I4/eG+fSMP1wO6Ue+3fHTDhlcnxbMYVy99RDc/fj0aTiyYFD/FStWJItyIXzDfP7c952FCxd2zCH+Hsdf/epXHS5CMMDUFUE7vbGUQB68LxjQfr5cXFbHjx8fFpncp295y2Z4k7Hwn//8J7nE2KMfvPbaa1FffRQCofte3j7p6xaOOY+tv0cF6Fu+DWkHFvUsv3qEF+bZ9LtSDnnZnM28VEofIS9CFmM9TWDM3Ee/pU/xLjGCqYNJSY853pc8jOuwn+cZDzA7PDNNMCr0kTxlkNdjXagdetJ//FhACJo9e3bH8/L0deqXdw4hbUgImqwJ7I3za69vd9KF6xn9hn7BXMcagkU/7xz4yU9+MhHswzUMBQLzvecHwnrRZw499NAEC9YVFIBZ8w9CO4JjIWKuZY9ImuhbCA0obiDfzpXGHeUA78786oVB+vaHPvShpB7heKaOCGox5Rl5/RyUZFz7H3McLmWlYtfdfkQfoi9R7y233DKpBfM9616ozPN1ZJ6Ep4EH8usLbR4qOxijrCXM37E5YfHixckcFs4JeefVt7zlLYmSlr7Mmg75dZU5DBwK4erfQ8fqRGANh9XLdQsjJLHnIE1MeExiWFfQriOZw7R4+u9//5toSj3DQudEIIkxXQwUzNowFmhzPMHM77HHHv5nlyOTpRdeGFyf+cxnEubfM2+4vqWtAxTCAv6vf/0rYR59WgY2gxwLDlqnsB5YMjyRBvLCl78eHpngISbELOGF+yzALNyeaWfB9MILkx2MGr65CA4QGt60AMFkde211yZ7afbcc8+kTcCa/TUsxLvvvnuiIYFZhVgc00TbMeFRNsIhghLEe7DYQbyvfzaTFFoXJj00u9CXvvSl5Bj+R7syIcK0INzyPn5xQxuMNot9Fw899FAyYaHhjU2wlAlzg5AE0R9pd7/ZNrno/uN5tB/1DnEj73777eeTJUcYTJh3hJ9tt902qRcbWhFemEQ//elPJ+9MEAvaCYbOC2hsDocZY5KFCaDdwI13gmAkYoxacrPAf9Rp1apVCbPAYkg7UBcWjM9//vOdcjKOWGSwKNA2J598csLwwliiySqV8uAbKxOGh3EPhu94xzs6+rJf/GN58lyDoaef0cZETWJxpX3pQyxq4EMb+7nJ99OwbDYao8lDoCMtYwqibr4vd6dPMuZgwuhn22+/fSJcgB9tBaMH00C5CxYsSNrutNNOC6vV6RxLJ+8Ks8F7TnOKIJgF+hztfsopp3RKn6eP0Ff9nME8BoNA+3z3u99NMPTMQaeCUz+uvvrq5Pkoe1Bi0A70MerplRI+S97xQP8IrS2MYf6YA/OW4Z/JMd0O4b1y9J+wPM7z9PW8c0i6bH77/RLg5Clch8Oob6xrzPNz5szptMaUMgf6Z3CkvXk/5h/2GjCn4EpOP6TMtBWB+efvf/97MoejHPICF2OLemUR6wHCC4IA6xnj5s1vfnMitJAPKwf9N6RK4x4+i3PqAQYQdWQ8U89bnLKUe1nu9Fg16M9Y0iAUVfxGeAkpD3Y96Ufhs/w5awlrKx42KFQYh3gd0A7Mk7RBSLQ5PAHrH2sb7cuax5xEn2COYk4AJ3iotAKmlHkVjMEVfOl3/Hk+iLnnlVdeyYVrWH+dVw8CvSrAsCjQsREGPN1xxx3+tOPIYIUxYKDhpkFHpxNCWFk++MEPJu5DaF395MbCCSObJhh4BhCMH/d9etKFk3k6nxdOEBJwx2ESxkQauonAFKSJdDA8aMBD5oLFmnr87Gc/S+rhhRsw8YRQBaPNMYs8s8zAK4XADMIyhqsCWkQ0/7j0oSGCYLhDYjJBI8T+JTagegGBNGCH9grm71Of+lSSjQkoHZ0JRhjTMRo9yiFMqtfeeixJgwDBbzQilDnLufvB6EMxwZS6wOhRRxZGtOT0EdxIYKYQIGBAeTblIxTTp7pLMJAspkzSHjcfQS89QfMMFhYmTepGWyP0QfRnJmsiJeHK5fss2lAI5pe6Ujb9Cy0tuPFOuK1Bxx57bHIs9T/GEeOBPk07YE6H0gIRCw/BH+6+++6knmDq+w/Wnd4ihE9cCsCQBc/3MxbLNCNSSp1oF/oZbXr//fcn2ljyIxTg+gI+4O8tKWy6ThOaTwQEFC2kZUxRXwjtINSdPgnmMGL0M9odARbiGV4ZwdilLRkzfiwliVL/oeghDcwp70m7wtD/4he/SFLGxkOxPoIQhaDDfIZGG6sV7YOA7QWbVDU6/WR+QKkB0b+Ze2gH+pgfI2GGcoyH7pSRboewTuXoP2F5nOfp6x6fYnNIumx+ewVJaJ1A+IRoSxhpv8bSByDPLCc/3H+lzoHkY03wlgcYU9Zv5j4sIKzfzM0wlSFhtUepwhwOL+DnHupXyM3Key2w9uKyxbyL8pJ+xjpBv/XzrX9epXH3z/FHvE+8Ig2rBUQ9Eeh453CN9XlKOebBrif9KFYXPFGYZ/h0Bs9n/YaPYc6B0pjT3+AfWP+Y48aNG5es8cxP9D3mKPoafYU5Jk2lzKtYwCDqQ/n8wcehMEExynNE/ReBut6o+pNPPpl0HD9B+mfSkWObGtMLYej7mHYjw7KCdQBicoYxCSmt3cEC4vdMoDmNEcwREy8EM4lrV4ywQKQJ64snNOieYOAZPJ4wi06ePNn/TI7g5PdLdLoR/ICRgdJuakGS6Kmf+P27h4lggtD4okkNKbQUcZ13gGi30PrDhMUkDGZDhw5NJqUkofuPxZ77ITGBMIn690cQYoGlf6BdgWFkUktrXsIy/OTvr3nGmr1GTHAh0YYQVh0vrIX385yjjUy/BwIFeyTQFoUEQ4fA54n3Yi8WhMYvXT+ukwZtlGcwWOTSlgavnY71O8ooRLRPWujFdI7glBYGqLtva18muHl3BzSGWOAqTfSdkGCWfT9DqPVjIUyT5zz9TQaPC0JJSF5giIUEjoWohmmiH9KOUHf6ZLiPgzJgItnXxFiAIWCcsBhTN8+Uki5GpOGPcYn1j/FGW3sLkWekfN48fcQLVDAZpA8Jodgzm+H18NwrYHBH9Pj6+yiXGDuMYU/lGA/dKSPdDr4+HMvRf8LyOC/W18Er7xzCOpImhFnWH7T2EH0C7TgMJ+lhMlHa4dWAOyuU7uOlzIFJAe4/1hUIAcK7PicX3H8oJbzixl/jSN8KCUHGu5XhpQDjmyYUmH69SK/XzNsoSpmr4SXC/SiVxj1dT96DtZM1CWUiCk/26iEwY3XqKRXDjjboST+K1c+77jO3oCxhjaMtvGIszat4xZkvi7kJgg+gP4bEHEHfCRW9pcyr5IenYF8hwhBePQjPhcZ3+HydVzcCvSLAAEFaeGEgI22HjJ6HyjMU/neoAU1PzuFg8D6ZPh9H7/Pqr4WTX1a8eVyPQvITeniN85hlAOY+Ri0tLZ0uo4XqDrHA4L7GJFEKofmBvJY4zOuv+YnN3wuFFH+NYylaCxapNMGIQmjE0MiihUHrDMOexwWFvGmc/SZUGCzPZJEuJFxyuktoCtMU67ukSQs6XgPJPbSnWYRg4hd0Jn0wiVGeQA/pfLG2zBIAZjnrV4wQusEZzX1vCDDMEWnyAkz6eim/YZJjlB6TocIhnT5UTvh7fhx5Rqo7fTLdr9Eg4+5GX2B8Yt3lj3QoHtgIn0UwqVgp0/NZVvo8fcS7uabnYcqkvZgbCo1h77aLZTFGlBEqBMoxHrpTRrodwrqWo/+E5XFerK+XMofE2oa+jQss1g4YQG/1gJmDuUeAwaUMRQUBFlBWpOfuUuZA/36+77EXIi9hCU0Ta0QhQqkCj0G9Y2lh3BFgvHLBl1Vp3P1zwiMWIYQoXKmwSvHHmsHajpU5q3+FZWSdF8Oup/0o9lwsqihT/HwXSxNea2hoCH8mLnRcQICJERbnUIDxz8mz1mPlQ+EDb4ig5IUllLMoi3tjHYu9k66VB4FeEWDYT+IXBCRsNL9oVfISi50XFljcQsbLT8SUlRZ8uEbHDSepUBjKGjChUATD5PdtUB7EYEIrAEPX2+SZJLSnMLJZjAD3YDS5j1aGSR0NPotTetB6rVxs4u/p+3l3kbAcz+DBIPJMXHG8VYKJhUUVFxraB2tNHqI/sSCgffMY+XxodFkU0u/t71f6GPZL3CLT5OsH84DrGZYwhIjzzjuvU1I212INQBNaSfJjLf0Mr0kLrTNpxQR5EEx7m9LWBJ4fs5yUq17MQ95FwpfJ2II8A1KuPolVGUEEtwv+0GrTFowbjumIT74+CDhYp2GOqCvBTWBwmBNj+3p8vkJH3DIRYmJCNP24kPBCufRrCAtrjLyV0d9j7u7peChHGb4+fXUsZQ7JqiN7FXEJpg95ZR99BCEZwZN+hcDBmE5bS7LKLHbdz7l+zi+Wvrv3PT7MPfTBtJLNuxJlrZdZz/Xlcr/Y3J1VRvo62CJUI8wTIAHPAOZcLKPsq/MWw3S+cvyuxPuwXmNRgsfDGgO/gdBBpDFvhSlUd9LzOYgshXJ6rillXoW/YE1lbsa1F3dvhF3mFPb3Yp2JCeaF6qt71YNArwgwmO96whyzAdGbDdFWhNrPcON4zD0IrX64zwZfU09p64y/ziBn0YcpQluQZqIRDFisK81I+vqERzRpCHCYa9lQzeQX0xRzD8EEUykTBKZULEn4PafNp94XOmRMw2f25DxmvfIhfr0A6X2XWWCZ9DyFwqa/lnXEVxpmjckIM3F3KcaQd7csn4++D1NLn2Hx8ou6vx8e6cNoiUjfk/cIyyz1nAWDvh9akuhvXoDxjDv9DrxYBMIxufPOO2c+stz4ejcmFn3cZDyhZCjGTPu03TmyEKZduNLjqFx9kvrBkKFJ5A9CuGWfElrlLAHGtwPha30+8sYYMa7nIaKH0T9jboyxvWDpMn3gFSzCWIh8+5GO6G5pAaYc46EcZaTfo7d/lzKHZNWNQBMIMLhRwdAzx/g5n74KU+f3b7FPrxzkXbSwHnpruy+X+RDLImtsT/d+gA8MNHMU67MPWuCf5d3McdUqhcqBe9bzmEf9XIoFDPd41uw0TrH8KLO6Q+V+Hyw6CC+sBbgghsrlcC0vVFffJigg4Q0QiDxhFfQu4P5ad+ZVeDqs1fwhLDInsMaBe+gq2V1cfd107F0EBvTu47r3tHBfCZEjcKFi4OCOgzbJk4+G5X9zRKuBbzb+j94P0t+Phc/z97ybEwsqwgCWBJgiNqzBuKAV5YvD5SQYQcrNcoHyz/LRg5jsCOHMhOeJQUn4XG9V8XX0GzLBz7tUkAccvVCXFmx8mT05ou0I93KgifObo70AidkfCrWyvEcYea5YHXzd0SyHZnIYb4QGIsmlgxSEZXoLIYxVJRhfv5+IvhROyGjh0EpTPyZW3064OnhmgnpSJ5hQ0vmIV2H9y3mOFhONf0ieAWaB8oINWjYIS4AnmFA2dKapUvh6XNlACkMMISSl98ql69PT3wgOPtAHZbHHjLEFeZ/wnvZJymI/IG2enttwB4I8rsmP1H9eseFdLrgN45qXsUgVl/z078T8ElpxGGc+rHwsn7+GZRWhhf4c7kXgPnsB0gJuKeMhdNMNFSellOHrWY1H39eLzSFZdcf7AaEF6wvCg2eeSc9eDIhxBJVjPwblMEfQR2nvdJl+L6T/BAHpe0LecwKPD97PE0FxWIeg9DjyaQode4p7WDaBahjPMOEw7J48v8GY9euhvxcevftVHstGmC88L+f7eAUE4zZ086JNQz4jfH76nD7pgysRDIRPIcDXsX+ZD3Knyc9BxdZ65iTWVv4Qaj3hOePdhb13ThauuOqzltCHRNWHQK9YYHr62uxboTOjSYTQIKa1iHR6r00Kn8dkwKTsJ2Z/DybDDwR/LTwS6QltIQwZAoXXHPo0lFtoP4NPV8oRhh0mFkGm0OCn7ggB+MajscDnGWsQPuyYYb0LD8yPNxkj6BBBCE0UG+D9wOV5EP7OP/3pT0upbq60MLvUE6EL0y/1Y7LDUuKj0SEQoi2mboROxk0F10D/HnkehJCKNoXADAimlMHzsOKweLIJlg9fZpG3IFA3rFUIPUQwKxcxAbLpHwGOBYRFDG2Pd7FDU+nbBEaQ/k2fJlIKbg/gAYOOJp7IcZUk2ow+j6WIfkWbIVCyuOJT7AlmgGAM4E5aFgrqGXPdqhS+MHP0a/oxTAEb8dmszritJIER7je4ZNEmfhwhWPjAJD3tk9SfMYkSBrctxihzIdpsL6Rf5MLHZxGWV7TtWGgIScqcNW3atC5CQlb+2HUwRsmCMoD5D40+YznL/SNWBgIUZWDFSfcxcKWvecK9Ke94oH/CLKOFRzhiPUA5U0oZ/rnVeCxlDsmqP0KLd1EirLAntNC0J/MflnFcpMtFuElh0cHCw/hk7mPe8wqHcs1nBJDA8oJgwJrI2gdT7RlrxmUh63fW+5YDd182QhzWJpRYtAVCF8y0t2hi4WQMZBF5YO5RILBWgmtW6OWsMsr5Psz5jH8wx0UVQYxzlCZegZJVj/A6/BaeMuRDceeVd4xn+iPzlqe88yq40t7MlfRv+h77VuGvwJ+yvbIpC1cfvZY1DiVeaGHy9dGx7xComAUm7Lzhedarhj6rsfQs5ExAXuvry6FzEzYRBt2Tl675zcIddjoWcQZKGC0nTO+fTR58J2Fm0xMKg4JoG144yKq7L4t6hGn4HSP/3ZMw0EAsHdeIvkZENa8BgWnDLx+mH8adMIHphQFzLEIbGg8YLv4QeoiqgzuKp7De/hrHPO+QzovgCePFIuL9kGEomISpB4S2H80L5aM1YaGD2NCY9czYdQQOJiTeiYkQTSPCC9qdGc7tJWzn5AHBfwgP9DHwZGFlkoP8c9LvFWTtmKgLpWGSp8/Qd6gHbcUiTvlYVELrEP2cSRqhC9zAgzqhvaadCi3C6foWqpO/54/+nTCvs9DSl1g4YCjBh02PCHaeYIx9dCPqx0IBfr7fheVm4evLCo8+nz+G99LnPB+3AMY1zBeaViyS7FvjGuTLSR99WR4zfyx03ZeB9o+NyQgTjCPy0s+xzISUt0/6cv3Rl8F+LuYqxjR9AauPx5nQzeG85/P4I/mIdAQx9hAuEbjIF1L6mbF7YRoUErg3Ms5gViibdkcw8ZinsQzLRFinDOZY+g19DKGXPu8jwYX5SxkP9FHWCMY9498LVnnL8O/pj2G9/TV/9Pd8Xf2x0HWf16f1v/3R540dS5lDYvm5hpUL4nnsAfDEOurX1tDlmvvpuvo84dHXP30kDXMGfRELEHMJ7UK78z4oRLwi0T8nNk/7a/4YPtuf4x7Fmo2CCGuc95pgHkU5GFoIY/X05aSPPcE9tApSLrwErpZgAQasMyjueC/GlP+0QLoO/jeCP+s19WetZF2DSsGuJ+/jcUseuvY/FEjM74w55l/WXuYdH/HU5/HHMK8/BxespijEEBRQ9tFeYaRY/47kyTuvwmf4qIHUjfmTSKn0ER8RkfKycPWKazCjH4mqC4EaN8hfj+1bXXXLrA3mYVxsmBhZRPMQrkEstt5UmydPmIaPM9HxYwJNmK6n53n8X8NnwLThvoKlASYHDRQTeTFikoGwVFSC8GNlwuBDUmhDeS+YdjS4aYEwfD5MFhPVLKfZ6QnxfrQ3WthCi17sGTCkLDx+QY+l6ek1sMFs7YXgrPJ4BxZi+m3evp5VVrHr+KMTTAEGE4EKCxHMBhYgJvAsog/CVJOGtMWoUvjCSDM3gFW42BWrT0/uw0TwPvTrQgs0z+hJnyQ/78Y4Z2ww1vMS7YgQzFiHUS0n0Td572L9OOuZWCT5y9tmeccDrh8wVAhs6XbJW0ZWnavlet45pFrqSz3oi8wVKLEqPZ+xZqNxLzR3dQebcuHuGX4Y41LXYQRBxg3zQJ71vtB7lut9WONZv2nbUutEqHjwwP09XHeZM7FKQViiY142eedVFCX0v1gZHp8Yrsy7rNXpecTn0bHvEOiXAkzfwaUn50UgLcDkzad0fYdAWoDpu5royUJACAgBIbC+IICVBLc4rLLse8GajWUH1zKs3Ai7CL4iIRAi0C/2wIQV1rkQEAJCQAgIASEgBITAuoHApz/96SQ4Ehbts846q9NLIbz4SKWdbujHeo9ArfOrPnO9R0EAlB0BTLHscbnqqqvK7rZS9sqqwAQBXO1wkyTIA66SIiEgBISAEBAClUaAPTTs52MNYj8dbuZEKWUfDVFnu+uiWul6q/y+RUAuZH2Lv54uBISAEBACQkAICAEhIASEQAkIVCwKWQl1UFIhIASEgBAQAkJACAgBISAEhEAuBCTA5IJJiYSAEBACQkAICAEhIASEgBCoBgQkwFRDK6gOQkAICAEhIASEgBAQAkJACORCQAJMLpiUSAgIASEgBISAEBACQkAICIFqQEACTDW0guogBISAEBACQkAICAEhIASEQC4EJMDkgkmJhIAQEAJCQAgIASEgBISAEKgGBCTAVEMrqA5CQAgIASEgBISAEBACQkAI5EJAAkwumJRICAgBISAEhIAQEAJCQAgIgWpAQAJMNbSC6iAEhIAQEAJCQAgIASEgBIRALgQkwOSCSYmEgBAQAkJACAgBISAEhIAQqAYEJMBUQyuoDkJACAgBISAEhIAQEAJCQAjkQkACTC6YlEgICAEhIASEgBAQAkJACAiBakBAAkw1tILqIASEgBAQAkJACAgBISAEhEAuBCTA5IJJiYSAEBACQkAICAEhIASEgBCoBgQkwFRDK6gOQkAICAEhIASEgBAQAkJACORCQAJMLpiUSAgIASEgBISAEBACQkAICIFqQEACTDW0guogBISAEBACQkAICAEhIASEQC4EJMDkgkmJhIAQEAJCQAgIASEgBISAEKgGBCTAVEMrqA5CQAgIASEgBISAEBACQkAI5EJAAkwumJRICAgBISAEhIAQEAJCQAgIgWpAQAJMNbSC6iAEhIAQEAJCQAgIASEgBIRALgQkwOSCSYmEgBAQAkJACAgBISAEhIAQqAYEJMBUQyuoDkJACAgBISAEhIAQEAJCQAjkQkACTC6YlEgICAEhIASEgBAQAkJACAiBakBAAkw1tILqIASEgBAQAkJACAgBISAEhEAuBCTA5IJJiYSAEBACQkAICAEhIASEgBCoBgQkwFRDK6gOQkAICAEhIASEgBAQAkJACORCQAJMLpiUSAgIASEgBISAEBACQkAICIFqQEACTDW0guogBISAEBACQkAICAEhIASEQC4EJMDkgkmJhIAQEAJCQAgIASEgBISAEKgGBCTAVEMrqA5CQAgIASEgBISAEBACQkAI5EKgLleqCiYaMGCA1Q2otYG1tVbrju3uWW3u/7a2VmtuaVnzu81daeeOSAgIASEgBISAEBACQkAICIH1GYE+EWAGDxpso4YMszFDh9nGG2xo0yZPsS0nTLZJI8daY63ZshXLbfGypfbionnW3NpisxfPt+dnv2JLVq40q6lsc9XU1Nj2229ve+21lxOi2uy1116zF154wWbOnFnZB6t0ISAEhIAQEAJCQAgIASEgBIoi0GsCTLuzpUwYPdamjZtou03fyt645Q42bcQE22DoCBu2yUauomssLC3Nrdbw2mwbuedks4njzJYss0Vz59r9rz5vv77pant89ixrbG4q+mKlJvjyl79s73//+2306NHRrKtXr7Y77rjDTj/9dFu4cGE0jS4KASEgBISAEBACQkAICAEhUFkEaqZOnVpx36wRw0fYTptsZu/Z7Q22/5StbNKwkWajR9iqVQ3W1NhoI7eaZrXDBtvCh56yxQvm2wY7bG2jt5purQuW2sqXZtuQkcNt6Cab2PNPPGZ/vvXfdvUDt9v8xYvKgsy0adPsL3/5i02e7ASmHIRV5qyzzrILLrggR2olqQQChx12mJ1yyikdRbe2ttqxxx5rK1as6LimEyEgBISAEBACQkAICIF1E4GKW2AmjR1vR+81w9612U625cbTrWnEYFu5ot7qZ8+xoZM3sJE7bGY1453VY0CN1Q4dYmO32dzGHrCH2aJl1rJqtQ2ZtpENnjzebOAg22L3Xewb2+9gU67Z2M69/OLE1awnzbLnnnva5ZdfbriN5SX27Hzta19LkkuIyYtaedPttttutt1223UqdOTIkRJgOiGiH0JACAgBISAEhIAQWDcRqGgUsnEjR9kn33S4nbjV3jasvdZaNxhpg6Zu6FzDxlhja7MNdMfaEUPNmputvb7Bxm62sW2w87ZmS1dY2+xFNnCUs7yMHWO2cIU1vzLP2hYvNRsy0I59yzvsmH3eYmOGDe92qyC0/OY3vylJeAkfhhCz4447hpd0LgSEgBAQAkJACAgBISAEhECFEaiIAINP2qQxY+1rM460Y7fZy0Y7S8vEXbez5kXLreGJmTbIJdjQuYkNqR1kbS/Ps5pl9dY+d7G1NTRa+7KV1vbCbLPVjVYzZIi1zVtsKx980uqde1nT869a26tzbaizxpx2xHF2zoe+kAQB6A5G7HkZO3Zsl6zsb/n4xz9u2267reFedsghh9h9993XJR0XfvrTn0av66IQEAJCQAgIASEgBISAEBAClUGgIi5kA5x1Y7+pW9tBbr9La02bDRs8yNobm6115SqrGzvK6pBwCJnsBBqiitW4+23OAtPmQinX1Tdaq3MxqxlYZwOcC5m5yGNDJo53bmYjbUDbAGtb6vK4/JRzkNtTM3fZIvvOZb+zhtUNuRGaNGmSffSjH+2S/sUXXzT2V7Bh39Mzzzxj73nPe+w73/mOHX/88f5yctxss83M7SGyl19+udN1fuBq9q53vctwU9thhx1s0003dYam5iSi2aOPPmo33XST3X333V3y+QvkHTZsmP9pd911l82aNSuJjkbdKQ/i2Xfeeaf9/ve/zxVqeuedd7YDDjjA9thjD5s+fbotXbo0KeOhhx6yiy++OKljx0MjJxMnTrR3vvOdyXsh5LEn6MEHH7TbbrvNbr31VluyZEkklyXpd9ppp4571PuGG26w4cOH2+c+9zmjXmPGjLEnnngieddrrrmmUzuQcaONNkr+wD1N4EzEuPnz50fb45hjjrE3v/nNRt5x48ZZfX19kvapp56yn//85zZv3rx0kfotBISAEBACQkAICAEhUIUIVGQT/5DBg+17Bx9jb5u+gw12+1tqHDPf2tJmLU2NNnjKpERoaXfX2havsAHDBtkAt3+hcdkKqxk+xOpqBzpLzVIbOHKYDRg80Ak+Le66czOrc+ndt2BanQBT4/7VjR9jzfMWWcuKlXbSpT+1e555LDe8X/3qV+1jH/tYp/R8Z2bXXXfNZMAHu3eCuR44cGCnfN/+9rftwgsv7HQNRvuqq64yBKVChOBx4oknRoUGhJVwb86f/vSnxCL0hje8IVrkSifofehDH7J77rkneh9hCAEFRj+LmpqaEkHoe9/7XjTJSSedZGeccUYinEUTuIvXX3+9fepTn+ryTuABvp4WLVpk3/rWt+wnP/lJtLxVq1YlAuP999/vsxhCTSgEddwITl566aVEQPOXENR+9atf2QYbbOAvRY8PPPCAHX300UZAgDSB2TnnnNPp8p///Gc7//zzO13TDyEgBISAEBACQkAICIHKI1ARC8xGw8bYDiMnWour/+p5C2yY++YLQkeb+2dN7uOUzkLT2tZsLY7pHlw7yqWqt6aFi611+UCrdRaZoS79AJfU6ldbTa2ronMta160xFqctr+xabUNqBtog1c32SrnTjbCCRZ7bDTd7n32CSfgkKk4YTlI07333pspvJC20UVL+/73v2/veMc7OmVF4x/SwQcfnEQowwJTjBBGsF689a1vtVdffbVgcpjrQYMGZaYZMWJEIqAgJGBdCAkrEYJFaNEJ7/tzykewa2hoSAQLf53jpZdealnCU5ju0EMPtf/85z924IEHFrQIYQU599xzOwlpYTnU9e9//7t96Utfsssuuyy8lfuc9yZIQ5622H333e2KK66wI444okv5WG28xcvfJL1ICAgBISAEhIAQEAJCoPcRKM5ld6NOU4ePMewUK11Y2/lz51nDyhXW6P5anBtZTYP7a2m21UuW28I5863FuY45acaGug35dasard5dY/9L20oXYtlZWxpnz7Mljz1tK13UssEt7Ta8drANdO5nK1+ZbS3Lllut2ydz2LQdbeRgZ6XJSextSRMb+osRlhYY3PDv6quv7siGdeYXv/hFLobZZxo1alQSTMD/zjoWEl58HqxE3/zmN/3PjiPR0ooJLx2J3QkuXWGAgre97W25hBdfBgz/mWee6X9Gj1iXQgtTNJG7iOte2uqVlTZ9HStJTHhBGMXilqZddtnFEEBFQkAICAEhIASEgBAQAtWLQEUEmG0nTnHuYs3OmjLAxrnN/M0tLbZ46RJbutht1HfffqlxVpg6d3/V8mW2fN4aIQZTkLO72MszX7Qbr/23PfG/e+z5hx+y+26/3Z54/DEb6Db8D1i9Jt/QAQNt7IQJNtR9X6Zp6TLbZsxEO2haV6tKFuwx1y72uvSUvvGNbxhCREgwyuxPed/73mcnn3xydN8LIYH32WefMFvmOQLTaaedZt/97ncTq1A6IfttQtp3332TgAThNc7Z84L72y9/+csu7l7cP+GEEzgkAsAPf/jD5Dz8D/c39gbxx3mauJ6HECbIj7Ultg8FPHE1gz784Q8n+2+uu+66LkV/8pOfTO7xMVKIvTUbb7xxp3Rz5swxQjBvtdVWyf6fv/3tb53u8+PII4/sck0XhIAQEAJCQAgIASEgBKoHAeSGslP9/EW2YNQiZ1UZ5va01CYbvRvc/opV9Utt6MgRxjc7mhpW2Zx5c+2lV16x6W7jd5uzyqxavtIWL19qw0aMtLGjxtrgujobMWqci5w80Ea4a6tcOtyjRo8dZ4NcOXVOQFrgmNLRo8fYwZtub39/+vX9ElkvhTY/LWSQtpgLV1Z5/jrWhPQmf+5x7XYnhHli8z7Ry9KuSrinzZgxwyeLHtmb8utf/7rjHhv7//Wvf3X85oT9NyHFLCFstvcCCmmpEwJESPvtt1/yE5c53NNCAisvKHCdc+oyZcqUjmTkQXgqFKgA4YX9JcuWLUvygeGVV17Zaa8MN7AAfeUrX0kEHIQc9rmkCYFs9mwXvW4t7b333v6040gQBR9kAMHyi1/8YhK0IewPBDZIU4sTwNNE8AKREBACQkAICAEhIASEQO8jUBEBpqat3Z5+aab7nMtyG+lcw0Y6bXitY04XLllkcxbOt4FuD0uLYybnLFlgcxYtsJdmv2LbbLaVbbL5ZrbtJvvaYPf9GHOWmna3B8aZXtw+GBexzLmZzXV5ZzuBZavpm9sEh1WbixbW3NxkDW7Dd3tOhnLo0K6uZjCzPWVIcZtKuyvNchvxQ+HFNy/MOIJBmD4tePi0/sgG+1B44frjjz+e1DssZ4hzqQspVu5HPvKRMImxUf7pp5/utNGdTfRQbNM8m+LThJta2n2NcNSFBJgvfOELHcIL5dEOH/zgBxPrUOhehptdqRQKMz4ve2JeeOGFBDeiphEUYPvtt/e3M48Id2lBkfYQCQEhIASEgBAQAkJACPQ+AhURYFa3NtkyZ2Gpf+1VG+kY6oHOkjJq6DBbuny5PffaLNtq6ma2y0672r5vmmHz5s611Q31tv0Ou1idE3TaG1db6+JltmTubJsz+zUb5dzEhjghaLULk8w3WogS9eprrxgM5CAigrW2W7171gOvPJ8LveWuDggrIdMPszx69OhOzHSuwoJEsU3dN998c5Di9VOsSDDYoYsTVgD2qXjB4fXUa84WLFiQvpT8JvpYIQYfa1dIlI/lI01svo/R1ltv3eUyrmf8FaPQIhNLi+UnTVhIEPxCSwhtxTvSdnnp2WefTQSiUBAiL2UhlPH36U9/OulHRG4777zzEkEuq/wwtHZWGl0XAkJACAgBISAEhIAQqDwCFdkDc8uCF625vdXGOKFltWOWscQ89uJz9qgTMjabsqkd/dYj3CbxnW2Es7Rsvd2OtsuuezlzSrsteOppe/XJJ232C8/Z8zNfsFVOSFm6qt7uffhBu+Xeu2zShpOcW9IbXHjlwTZ/8SJrbGmylU6wWbZ8hb20dGFutGKM8JZbbpk7fyxheu8JadD2Z1E6ehnp2AuTRVkublgtsmiC2yeUZuCzBKGsMrBapIkyY3/pdGnXs/A+AmiWsIagmqYtttgifangb4TUs88+u2AabhIcge/iYGX57W9/20mwLZpZCYSAEBACQkAICAEhIAR6HYGKWGDmtTXaAyvm2SEDh9iS+hVuE7+LOuY27Y8YOsJ22moba3bfg5n/5BO2yH1EcYyzfMCE1+MG5o41zmWswUUmG+6En00mT0kEoSbnblZXO8AFYnYRletX2gYTJtqypYut0YVSbm1usZUu77L25tzgsZmbjyaGRPSp8Jsj4T1/TnQuwhmHBJP8j3/8o8tHF0kT7q0I83Be56xSacpi6EnXHRe3WOSx7pSTrmfe34Wih8X2lfhyY3WMCXw+fdaRAAWPPPJIYl0p9h0YyjjooIOMgAW4tomEgBAQAkJACAgBISAEqhOBrlx0mer5SMNCG7i4xjapG26rVtdbrdvzvPlGGzvhpcUefOIxFzm5zQksTiBxgs3qxoZEEz5+7NiEUR/uXKmIYDZ77hyrcx+znOA26Q92oZOXLFlqK1xo5TrnOtbsQjKvbmlwxyab31xvL7sAAXlp5syZXSJzsfcCYST2IUNfLntH0lYF3J0gNpGnqZBVp1KR0MI6vOICJKQpi5HH0hIKPAhTL7/8sr344otdvoFCRLVCOPlnrnBhtLOIZ2HFiVmQYq5nWRaorPL9dSKc8TFLvo9DQIX999+/4AdGjzrqqOTbMzEhypepoxAQAkJACAgBISAEhEDfIVAxAWa1cyG7vd5ZOmoG2ka1w2zqwKHuw5ZtzlpSby3ug5OjXVSxWmeFgFEc5oQczCuvzplry1cut6GDhyTpVjn3sEnO2jLCfdjSJbRaJ8Q0ObexIUOHOAGo3YVqbnLfl6m3Oxpm2/wSBJjf/e53dvjhh3dCHWsJUb5OP/30Ttf9D6wvaeGFfRFo+CE+SJkmomfFykNYSAswlJVHKEg/o9BvhAPKDTf28w68a7gPht9sag/dzdhbwwb3p556ymakoqNhPYlZqwhdHFKxfSNYvfjoZUgEHQj3BnGvWDlhfn9+7LHHJiGT/W/K+PznP5/85H0POeSQJGBAeu8SGPANHN+uPr+OQkAICAEhIASEgBAQAtWBQMUEGF4PZnCZE1uWtS63eQOcC1n9Ypu4dISNGTfeWltak30sTY4Zrq2rTZjUOpe+2QkmL81xmv/5r9nihhW2yYINbLz7MOZo96FKPmDZ1tZqkzeYbMOHDLVFbq/E7NZVdveilxKBJmTAC8EL843FBK18SMccc0yyefykk07q2J9BmT/60Y+S752EaTm/5ZZbOi4R3herRWjFYOP517/+9eRjjD4hblUIUGl67LHH0pfK8pt6pb8if9FFFxkMvicsE2ns/P6dhx9+2CfrOBKFjBDJhCX2BEZp97pLL700CX/s06SPP//5zxPriN+TBDZ/+tOf0skMl79iNH78+E5hlN/73vd2EmDIT3sROADhjQhk/PFNmW237fwNoXTgA77Rc+6553aqAvX82c9+1umafggBISAEhIAQEAJCQAhUHoGKCjBh9Rc1N9g9K+da3epmm+424A8d7r4R4yJCOXnFVrnIY0saV9rChpU2b/VSa3D7WUYOGWTTJm1kk0aMc/tcmu21FQtstgu53NTcZhPnz7ZBQwba0gFt9viABpuzckkXBjx8duycDx/y7ZI04873Q7A64P6EpYG9Muk0lAcT/KUvfalT0Vhw+HJ8SLidYcG44447ku/fYHUg4llIWEpOPfXU8FLZzvm+zPnnn9+pPL7xAjPPHxv93/72t3e6zw8fKvmGG25Ion+Fkc5wQ8PidOONNxp7U/imzeTJk7uUcdlll3W5Fl7AEvLoo4/ac889lwgfWEPSwgPpzzjjjDBb9JyoaAgkWE4QUO+7774uAgx7Yn7wgx8kH86kTXEnS0dZoy3S1iUEwPT77bzzztF66KIQEAJCQAgIASEgBIRAZRHoNQGGDfhzm+rtFsf4L1y5zEYvHmRNNe3WXNNqS5270kInwKyqaXbuToNs8qjRtuWkjW3PadvahmMmOKtMiy1atsheeHWWvbRwni35//buBEyK4vzj+Lvcgggol1wiIiIeQVTQv6KgJoKKCvE2EeUIxiTeN4oRFfAxItE8HlHMg6CgJsYD8YwhAUFUDCoKKBAPUBCRU1wu+c+vYo29s7O7M0Nv7wz9redZZqa7urvqU8Pz9Dt19IY1Nnddsa2uVd3Wby69JHAmZFrGeNy4cabelnQp3Y10MJ8e3uh7Dvz28ePH2yWXXFLieSrap7kw5c2HeeGFFyzdfBV/3u15nTJlii1LLFXdvHnzEqfRMsXBpYqDO/WgSB2npGFt/fv3dw+YDOZRQFPeU+s19yTdvKDgOfRegUSHDh3cX+o+fdYcHD14M5gUYAwZMiS4yfWmqUdNZdeqYurlUvAYXC5bQ+kqCob0PJxchqyVKAwfEEAAAQQQQAABBCpNoFKWUS6rtFsTc1+Wb9tob9ham7r1a/vnpq9s+uaVtrJ5XVtZt8g21kw8jyXxq3zTxHNfWjdqao3rN0pMjalm1bYVWcO6u1inVm3t6A77WtOmzWxVjaKcgxdfPt3Mal5EcCiU31fWq+bsDB06tNSv9D5/3759LZulivUMEs2vqcw0cODAjG/KFTD07t27RHHU2+J7ZErsKOODApcBAwaUsffHzRW5ax6Oyp6a1CtU0SR7BW3ZriamwCU4tC71unxGAAEEEEAAAQQQqHqBSAMYV93EL+7fJnpdvqm21b5N9P98myjBkuINVly3jhUnhpWtT2QqSowr25bodSlObF//3drExP7Vtj4xSb96YmjZ+k3FNjvxvjixP4yk539oSJWGMVWU9FT5Ll262IQJE8rMqp6Url27uuFMZWZK7NAN+LBhw0wregUn1Jd1TFnLDqfeyKdb1Wvu3Lmu3BquVV7SkLCePXuaHrSZmkaOHGl62KV6OMpKKouCwlNPPbXCgEnBi+YcKUhJlzQU7NBDD037LB3VUT1dFQWKTz31lJ133nmJ1etWpbtEcpvOp7p37949bd50gVbYCy4kC8MbBBBAAAEEEEAAgXIFihIrYpX9JMRyD62cnbUTfS4ti6rbgQ2bWMfGza1RojdGK5Bt2bwpMddljU1bs8I+SKxUppXMwk6aRK65DZq0rfkYGnL0YeLBmuqB0JyKbJ9FovN17tzZNK9Gw5s0yX/27NmmXpcFCxakXUI47Dqlnq9p06YuMFBw0K5dO9MT6zUXZtasWRn3RGkVNU3i1/LEWnlMPppPpOFXqQGVv/7TTz9dYtEEBQV6OKWGkGlekALDnXbayRQkTps2LW0Q5c8VfG3btq21bt3atZV8ly5dap/8sLR1MJ/qeuyxx7oyqMya46SFCvSn4W4rV64MZuc9AggggAACCCCAQJ4K5F0AI6fqiV/E61WrYY0TyyzvmngYZu3EZP9Nie2LEs+TWZ1YRjn80CVPW2cHKlZZAcwOVEWqggACCCCAAAIIIBCBQGST+LOpy9bEr/JrEkPE1iUeevmpm6SvJQASz31JBDb6xZ6EAAIIIIAAAggggAAC8RTIywBGTaFARWPbtrp2+d8oN4IXh8E/CCCAAAIIIIAAAgjEViD6SfyxpabiCCCAAAIIIIAAAgggsL0CBDDbK8jxCCCAAAIIIIAAAgggEJlA3g4hi0yAC0UioOWVO3XqlLzWmjVrku95gwACCCCAAAIIIIBApgJ5uQpZpoUnHwIIIIAAAggggAACCMRLgCFk8WpvaosAAggggAACCCCAQEELEMAUdPNReAQQQAABBBBAAAEE4iVAABOv9qa2CCCAAAIIIIAAAggUtAABTEE3H4VHAAEEEEAAAQQQQCBeAgQw8WpvaosAAggggAACCCCAQEELEMAUdPNReAQQQAABBBBAAAEE4iVAABOv9qa2CCCAAAIIIIAAAggUtAABTEE3H4VHAAEEEEAAAQQQQCBeAgQw8WpvaosAAggggAACCCCAQEELEMAUdPNReAQQQAABBBBAAAEE4iVAABOv9qa2CCCAAAIIIIAAAggUtAABTEE3H4VHAAEEEEAAAQQQQCBeAgQw8WpvaosAAggggAACCCCAQEELEMAUdPNReAQQQAABBBBAAAEE4iVAABOv9qa2CCCAAAIIIIAAAggUtAABTEE3H4VHAAEEEEAAAQQQQCBeAgQw8WpvaosAAggggAACCCCAQEELEMAUdPNReAQQQAABBBBAAAEE4iVAABOv9qa2CCCAAAIIIIAAAggUtAABTEE3H4VHAAEEEEAAAQQQQCBeAgQw8WpvaosAAggggAACCCCAQEELxDaAOeaYY2zw4MHWunXrgm5ACo8AAggggAACCCCAQJwEasSpssG6Dhs2zPbcc0/btm2bPfTQQ8FdVfq+TZs21r9/f1u4cKFNnDixSsvCxRFAAAEEEEAAAQQQyDeB2PbA5FtD+PJ069bNBg0aZJdeeqnfxCsCCCCAAAIIIIAAAgj8IEAAw1cBAQQQQAABBBBAAAEECkaAAOaHpmrVqpVNnTrVHn74YevUqZMbvvX+++/bu+++a5MmTbLGjRsnGzWYt2nTpjZhwgR77733bM6cOXbPPffY/vvvn8yrN/fee6879z777FNiuz78/e9/d/vq1Knj3g8dOtTl0XlVnhdeeKHUMWxAAAEEEEAAAQQQQCCuArGdA5Pa4I0aNXJzYlq2bGndu3e3WrVqJbMcfvjhNmPGDDvwwAOtuLjYfN4WLVrY9OnTrXbt2sm8J598svXp08d69epl8+fPd9sPOeQQa9asmSkoWbBgQTKv3ijY0bX0t99++yXPVa1aNVee77//vkR+PiCAAAIIIIAAAgggEGeBvOqBadiwoWly/Wuvveb+9F7bokwKJDZs2GDHH3+8qcdk1KhRpiBCQcrll19eoijapvxXX321tW/f3k488URbsmSJFRUVud6UmjVrlshf0YcOHTrYlVde6bItW7bM9thjDxfEVHQc+xFAAAEEEEAAAQQQiItAXgUwChBOP/10a9KkifvT+9SgIYqGOemkk1zviXpb7rvvPvvggw/cZdUDk5p+//vf2+OPP26bN2+2uXPnmo7dtGmT1a1b1w4++ODU7HxGAAEEEEAAAQQQQACB7RDIqwBGz2ZJTem2peYJ8/PGjRvt888/L3HKl19+2X3W0LHUNH78+BKbVq1alRwmpqFoJAQQQAABBBBAAAEEEAhPIK8CmPCqlfuZ1OuSmhSUpEsaarZ169ZSuxYtWuS2peuxKZWZDQgggAACCCCAAAIIIJCxQF4FMJr7kprSbUvNU1WftXJYutS8eXO3ObUnJ92cmBo1WEchnSHbEEAAAQQQQAABBBBIJ5BXAczo0aPtySeftBUrVrg/vde2fE1aKeyAAw4oVbyOHTu6bTNnznSvGpamdNRRR7lX/0+DBg1M50iXtBAACQEEEEAAAQQQQAABBEoKpL97Lpknsk+rV6+24cOHm+a96E/vtS2f06OPPppc+ljlvPXWW5Mrp2mJZaV58+a51xNOOCGZVwHKAw884LYH/1m/fr37qCWXywpugvl5jwACCCCAAAIIIIBAnAQYv7Qdrb1t2zZTL4qe96LhYlo9TauPKY0YMcL83Bk9CFPLMutZMHoOzMcff2y777671a9fv9TV33nnHbdNAY7Oq5XN+vXrVyofGxBAAAEEEEAAAQQQiKNAXvXAVEUDKAhR8q/pyuD3+VefZ+3atXbdddfZli1b3DNbFLyoB2Xs2LElelc0j0cBjZZXVmCi573Uq1fPPWNG25T8uZcvX2533323adiZnjPTpUsXfzleEUAAAQQQQAABBBCIvUBRmzZt/ncHH3uKzAE072Xy5Mm2Zs0a8yuNtWvXzj0AUw+gLC+1atXK9dIsXLjQPSCzvLzqsVFwtHLlyvKysQ8BBBBAAAEEEEAAgdgIMIQspKZevHhxRmdasmRJRvmUSb0xJAQQQAABBBBAAAEEEPhRIPZDyH6k4B0CCCCAAAIIIIAAAgjkuwA9MDm00BdffGFTpkyxTz/9NIejOQQBBBBAAAEEEEAAAQRyFWAOTK5yHIcAAggggAACCCCAAAKRCzCELHJyLogAAggggAACCCCAAAK5ChDA5CrHcQgggAACCCCAAAIIIBC5AAFM5ORcEAEEEEAAAQQQQAABBHIVIIDJVY7jEEAAAQQQQAABBBBAIHIBApjIybkgAggggAACCCCAAAII5CpAAJOrHMchgAACCCCAAAIIIIBA5AIEMJGTc0EEEEAAAQQQQAABBBDIVYAAJlc5jkMAAQQQQAABBBBAAIHIBQhgIifngggggAACCCCAAAIIIJCrAAFMrnIchwACCCCAAAIIIIAAApELEMBETs4FEUAAAQQQQAABBBBAIFcBAphc5TgOAQQQQAABBBBAAAEEIhcggImcnAsigAACCCCAAAIIIIBArgIEMLnKcRwCCCCAAAIIIIAAAghELkAAEzk5F0QAAQQQQAABBBBAAIFcBQhgcpXjOAQQQAABBBBAAAEEEIhcgAAmcnIuiAACCCCAAAIIIIAAArkKEMDkKsdxCCCAAAIIIIAAAgggELkAAUzk5FwQAQQQQAABBBBAAAEEchUggMlVjuMQQAABBBBAAAEEEEAgcgECmMjJuSACCCCAAAIIIIAAAgjkKlAj1wN3hONq165tDRo0sOrVq7u/yqrT1q1bTX9r1qyxjRs35nSZqMqaU+EqOIj6b3/7V0DMbgQQQAABBBBAIDYCRW3atNkWm9oGKlq/fn3bZZddrKioKLC1ct9u27bN1q1bZ2vXrs3qQlVR1qwKmGFm6p9b+2fISzYEEEAAAQQQQCAWArEcQlarVi3X8xJl8KJvk66nYES9KZmmqiprpuXLJh/1z779s/ElLwIIIIAAAgggEAeBWAYwCiKqKukmfuedd8748lVZ1owLmUVG6p9d+2dBS1YEEEAAAQQQQCAWArEMYNSrUZUpm+tnk7cq65TNtbOpUzZ5sylDVebdEetUlZ5cGwEEEEAAAQTiJRDLSfyatJ9puuqqq9y8lfvvv7/cQ2rUqGFnn322tW/f3g0Rmzdvno0bNy7tMdlcP5u8aS/2w8ZrrrnGWrZsmczy8ssv2+TJk5Of071p3ry5DR482GbPnm1TpkxJlyW5rUmTJnb66ae7a6jMzz//vE2bNi25P/gmmzplkzd4jdT3udQ/9RxhfQ6rTmGVh/MggAACCCCAAAKFJBDLACabBjrllFOsuLjYygtgNCzq2WefdfNq/LnbtWtXZgDj80T52q1bN2vcuLGbh1OtWjVbv359hQFM27ZtrVevXtaiRYtyA5hWrVrZxIkTTef1adWqVWUGMD5PlK+51D/K8nEtBBBAAAEEEEAAgcwECGAqcPriiy/c8sflZevZs6cLXlavXm2XXnqpLVq0yLTiVj6lfv36ueIoILv66qszKpqCkK+//toWLlxYbv4hQ4a44GXOnDl200032TfffLND1L/cSrMTAQQQQAABBBBAoEoECGAqYD/jjDPCrj4EAAAadElEQVQqyGG21157uTwaMvXxxx9XmL9QMixYsMAU8FSU/NA0DZlTwENCAAEEEEAAAQQQQKCyBAhg0siqt2LAgAHJPV999VWJz37H008/7ea71KlTx23ScKujjz7avf/www/tiiuu8Fkr7XWPPfawESNGuLknNWvWtA0bNtjjjz9uDz30UM7XHD58uHXp0iV5/NSpU+0Pf/hD8rPe7LPPPjZmzBi3za+qpnJs3rzZbXvsscds/Pjx7n1l/nPsscfaxRdfbLvuuqsbHqdesNtuu81mzpyZ82WPPPJIO+uss6xTp06uffUgzs8//9wuueSSUgGatvXu3dstj+3zqd2XLVuW8/U5EAEEEEAAAQQQQKBsgbwKYBo2bOhuRnv06OFKrBvnu+++23RTGmXSTbgCASX1LvgAJbUMK1eudPs0t0QrS23cuNENn1K+FStWpGYP/fMBBxxg9913n7tx37Rpky1fvtyaNWtmF1xwge222252++2353RNzflR/evVq2dqE9/DFDxZsK477bSTG0Kmh3R6t2wf1hk8d6bvBw0a5Oqq/Lqe5iI1atTIBVuatD99+vRMT5XMp0Bo1KhR7lwKXBWI7L777qb5QPouBHuYHnzwQRfk6GDZ61jlmzRpkvXp08ct/pA8MW8QQAABBBBAAAEEQhHIqwDm8ssvt759+yYrplWttLrXsGHDktuiePPcc8+Z/pTKuwkeOHCgy3PRRRfZueee6ya6//GPf3Tbovjn1ltvdTfaWiFMvR+ad9O6dWs3oV430LrB1nyUbJPOpXTYYYfZnXfemfbwTz75xNVZOx955BEX5Fx//fWm1deiSAqs+vfv7y517bXXJhcMOPXUU00rx6ksJ5xwQtZFufDCC52penCuvPLK5PEKTIJBqeY9qYdGgeM555xjX375pQvi1FOlBQP0nVU5SAgggAACCCCAAALhCvy4bFS4583pbMccc0yp49JtK5UphhvU66M/pbfeesvUayWrvffe29RzoN6I7t2777AyJ554ogsY1OOjIFd11596YjSUq0GDBq4HKVuApUuXukPatGlT4ngFbN9++23ydAqulf773/9ax44d3bXVBm+++abbrt4xEgIIIIAAAggggED4AnnVAxN+9XbcM+63337Jymnlr3Qp3dCvdPkKcVuHDh1csevWrWvqiUqXtJT1+++/n25XmdueeOIJ09A0DRfTs3I0fPHtt992w9I0RM4nv3CB5gKlu76G35EQQAABBBBAAAEEwhfIqwDmtddeKzGETNXVNlJpAc07UdKcjJEjR5bOkNiyePHitNt3hI1+XtKsWbNMQUe69NFHH6XbXO627777zk3K10T8rl27ujlAxx13nGmxgPPOOy9pql4fpQceeMDSXUdDy0gIIIAAAggggAAC4QvkVQAzevRo27JlixsOpar6SfzhV7vwz+jnmuhG+o033si4QrpBV/Irh2V8YJ5l1LNptFqYvi9h118P+bz55ptdjfWQTs0D0qvm3PjeLk3a1zwcBZDZXD/PGCkOAggggAACCCBQcAJ5NQdGw3W0hK+fz6D3Ua9AFmULtm/f3v2yn8tQr88++8xNINdNtHoKUtOee+6Zusl91rNqlPwQLPehiv7ZnvoruFXSQgPphmvlWn+tJBZMS5YssVdeecVt0rwYn2bMmOHenn/++X5T8lVBZYsWLZKfeYMAAggggAACCCAQnkBe9cCEV63cz6TlkPVsD580Gb527drJFaU0NCislca0BLICiaeeesouu+wyf8mMXrXimMqhla7Uc/X666+7h2hqGeVDDz3UmjRpYkcccUSpc6kHRitmaWngF1980fS8mlWrVtktt9zi8moRAK3kpaReByXduPsVtRYtWuTK63Zs5z/bU389MFTDx7Ti1+TJk+2ll14yLWut1cK0TRPu0z2Es6L633DDDXbQQQeZAhQNDVP7eEet6ubT2LFj7bTTTnNzZZ555hk31FHLb++7777WuXNn+/e//21Dhw712XlFAAEEEEAAAQQQCEmAACYFUkOr/A2831WtWrXkNh84+H161Tal77//3r1m+o//lb6sORwVnUcP0tS1FfxoOJX+fNKDF8tKN954o91xxx3umSm62VdQ5gOYgw8+OFlXf7x6ebyJgh8FXOlS1PXXMsdaQlnLJWvZaJ9UDgUQZaXy6q8ATQGgVhTTn5JWNnv22WddUOM2JP6R+5lnnml33XWXe6jnGWec4XeZgiStDEdCAAEEEEAAAQQQCF+gKPHr+v/uvsM/d96e0fcsVGUBtVyvlubVzXZZw51UvkzL2rx5c7eEsnohND8k3yeRh1l/9ZJpOJoMdF4tbeyDylzaOHg+zTUKPrwy3fnUa6dnwmhhAbWpHn5ZUdLQNBICCCCAAAIIIIBA9gL0wGRvFsoRGqqlNH/+/FDOp5vmTG6cQ7lYCCcJs/4KVjSkTH9hpGzPp2Bxzpw5YVyacyCAAAIIIIAAAghUIJBXk/grKGtou/Wgw6pMur6Gaik999xz5RalqstabuFy3En9q/b7l2OzcRgCCCCAAAIIIJAXAtUTTyz/fV6UJMJCaFJ+zZo1I7xiyUtt3LjRzavQU+T/8pe/WHFxcckMgU9VXdZAUUJ7S/03unkyoYFyIgQQQAABBBBAIEYCsZwDo6BAq3RVRdLwpBUrVmQ8R0Vlbdy4sWlexo6Qcql/VbVVZXhnW//KKAPnRAABBBBAAAEEClkglkPI1AOwbt26Kmk3rWiVzQT7qixrZQBR/+zavzLagHMigAACCCCAAAKFLBDLHhjfYHrgoJZN1upRel9ZSU+L1zAxPeFd73NJUZU1l7JVdAz13/72r8iY/QgggAACCCCAQFwEYh3AxKWRqScCCCCAAAIIIIAAAjuKQCyHkO0ojUc9EEAAAQQQQAABBBCImwABTNxanPoigAACCCCAAAIIIFDAAgQwBdx4FB0BBBBAAAEEEEAAgbgJEMDErcWpLwIIIIAAAggggAACBSxAAFPAjUfREUAAAQQQQAABBBCImwABTNxanPoigAACCCCAAAIIIFDAAgQwBdx4FB0BBBBAAAEEEEAAgbgJEMDErcWpLwIIIIAAAggggAACBSxAAFPAjUfREUAAAQQQQAABBBCImwABTNxanPoigAACCCCAAAIIIFDAAgQwBdx4FB0BBBBAAAEEEEAAgbgJEMDErcWpLwIIIIAAAggggAACBSxAAFPAjUfREUAAAQQQQAABBBCImwABTNxanPoigAACCCCAAAIIIFDAAgQwBdx4FB0BBBBAAAEEEEAAgbgJEMDErcWpLwIIIIAAAggggAACBSxAAFPAjUfREUAAAQQQQAABBBCImwABTNxanPoigAACCCCAAAIIIFDAAgQwBdx4FB0BBBBAAAEEEEAAgbgJEMDErcWpLwIIIIAAAggggAACBSxAAFPAjUfREUAAAQQQQAABBBCImwABTNxanPoigAACCCCAAAIIIFDAAjUKuOyhFb1NmzZ24YUX2l577WXVq1e3WbNm2auvvmr/+c9/QrtGoZxo6tSp1qRJEzvxxBPtk08+KZRiU04EEEAAAQQQQACBmAgUJW7et8WkrmmrOXr0aPv5z3+edt/8+fOtX79+9u2336bdv6NtbNq0qb311luuWrfeeqs9+OCDO1oV864+/fv3NwXQsl62bFnelY8CIYAAAggggAAC+SYQ6x6Yiy66KBm8fP311/bPf/7TFixYYIcddpgde+yx1rFjR9cb061bt1gEMV999ZXdddddrifq0Ucfzbfv6g5Znssuu8waNWpkb7zxBgHMDtnCVAoBBBBAAAEEwhaIbQCjAOWaa65xnn/729/s8ssvT9rq13AFL88995zVr1/fLrnkEhsxYkRy/478ZsyYMTty9agbAggggAACCCCAQIELxHYS/29/+1vXdJ9++mmJ4MW3p4aP3XPPPe7jueee6ze713322cdGjhxp06ZNsw8++MD++te/2qBBg6xatR85W7VqZZpP8vDDD9shhxxiTz/9tM2bN8/16GjYkJIPknSOt99+2/785z9b7dq13T79o+FrOsfFF19sXbp0sZdeesmdQ9cdNmyYNW7cOJnXv9G1nnrqKZszZ44r2wsvvODK5vfrVcPDdN4jjzzSNIRu9uzZ9t5777kskyZNcvsaNGiQPKRevXp27733ul4C9VD961//ctcvKipK5tEbfT7//PPtiSeesLlz59rrr79ud9xxh6tnMKO//uGHH27XXXedO5/Oq/w6PpOkXgsFoC+++KIzefnll925dttttxKHy111VR10XTnLWz1MJ5xwQom8/kOPHj3soYceciZvvvmm3XnnnWXWIZ2hzlNRO5xyyimuXA0bNnSXHTVqlPt8zjnn+GJYtt+z7t27u6BblvrOKGXadsmL8gYBBBBAAAEEEMhzgdjOgdENu27SNYRHN/zpkgIS3Ygq6UZWSUGHgoJgsOJ2JP7R/JHTTjvNfTzggANs8uTJtmnTJndjX7NmTZ/NvT722GN29tlnu33BHQqojjrqKLfphhtusMGDB9vy5cutWbNmwWzu/erVq61r1662ceNG91k3/zfffHOpfNrwzDPPJG9qX3nlFevQoYOtWbPGGWj/tm3brG3btvbRRx+5IErBxRdffGGaF6OApW7duspmmzdvNl+XYFm1b/z48cmy67NPOrdu2N999123yV9fw/bSBWH333+/CxD98amvKsv06dMtNVhRPtVJZffzlhYuXOjKq7LuscceqadyXgoyffrlL3/pAh3/2b9+//331rt3b1Ngq+TrkM4wk3bQ9+7SSy/1p0++jhs3zgWHuXzPatSokfxeqi3uvvvujNsuWQDeIIAAAggggAACeS7wY5dBHhRUv0arZ+G1115zf3rvf6EOs3i6Afc9DPrVv6ykm1YFLj540a/Zzz77rLtJVG/KT3/6U2vfvr1deeWVLgA49NBDSw01q1WrlgtAFGgoaJia6A1Q0i/t3333nR1//PEucFCwoqSbbPXeBJOCl7Vr19pZZ51l7dq1swEDBrigRTbqMVFS74d6M5SmTJliBx54oPsbO3as26YAwgcebkPiHxnoRveII46w/fbbz28u8fqrX/3KBS8Kovbff39X35NOOslko7Kqt0JJ5VfgpWDl2muvdXXt2bOnC1pUNvVSqdckmBS8KFjZd999rU+fPsngYODAgcFspd4rGFPwsn79eue455572plnnpkMyBRgpiaV9ZFHHrHOnTu7oE8BiJK+Y506dXLv1ct1yy23uPfqDVN9Nf9Jq9EpYNV1KzLMtB0010hlWrVqlbueevD0WeXJ9Xu2bt06U++ePFWPTNvOFYB/EEAAAQQQQACBAhHIqwBG81BOP/10t4yvlvLV++DclLBMf/KTn7hT6SZcN+aZpuOOO871TujGWQGBeivUI/Hkk0/aTTfd5E6jm/vUpKFKuo56SnRT6dPVV1/tbtp1069AYsWKFW6X74Hx+bT/1FNPtZkzZ9rWrVvtH//4h11wwQVu90EHHeSz2fXXX2+/+93v7Ne//rW7mVfvwPDhw624uNjl0RCjYNL5FHgsWbIk2WMR3K/3uuFXUo+VbpCV3n//fVd/BW6LFi1y2/r27eteb7/9dps4caKr6+LFi90iCSqHArlevXq5PP4fBQYairdhwwZ3/t/85jdul4KE1GDHH6MhdgoElTTETgGo2lGT4E8++WQXQCkQ0NylYJoxY4bdeOONLmBQWyhgUK+MAo5f/OIXLqt6u/RZvrfddpurr1YG03UUQNapU8cFP8HzpjPMth2C59P7XL9nOk4Bsjz1Xcu07VKvz2cEEEAAAQQQQCCfBfIqgDnmmGNKWaXbVipTlhu++eYbd4RuVvWXafKBhXpk/LAtf6yGhCmpVyP4K72CHd3A+6TjFPQoaRhUMH355Zfuox+u5fdpdTAfKPhtunH3w9N0Q68gR4sRqIeobWIomAIs9WRcddVV7sZbx6Xe1OtGvaKk3jAl9TapZ0O9P+oRUkCjwO3zzz93vRN+OJd6OYJJdfX1TA2gfG+Uz6/hXt413ZA55dPwMCUNn9Ncj2DSc2s0LE0p9VoampWa1KOi5INA/yp/BTP+T44KXpSOPvpo9+r/STXMpR38ufxrLt8zBS36ngRTJm0XzM97BBBAAAEEEECgEARiuQqZegb0q72GBWm4zYcffphRW2lIkVK6/LpRV0+HbnTVw+NvxNVjUlbasmVLWbtKbC/rgZIKxJo3b+56BdQb9LOf/cwtPOBvtkucJM0HBVcVJU3eV73Vi6ShVupp0p96JjQpXiu1KYBSIKiAys89CZ5XE/r1YEw/VMvvS9f7JbfgQgY+r3/1AYzm56RLCqjUe6ehXxpK59M777zj3yZf/cIFfsieLJV0DX+dZOYf3qQOtUtnmG07pF4jl++ZD4qD58qk7YL5eY8AAggggAACCBSCQF4FMPrF2A9F8nj+V2T/OaxX/VqtG1b9op4uINF11JOiG2/dHD7//PO2dOlSN4m/RYsWaYvhb7zVW+JvitNmzHJjWb0RO++8szuTrucfhqgNKuerr77qhripR0KTuX3Zsry0y67n5WhehubtqCdGc31k96c//ckFLLNmzXL5NExMQaGCw2DyFmUFHcG8Fb33PVG77rpr2qy+J0hBajBpWFlqD4XMlPw8FA2R22WXXdxcGQ1vCyb1yqiXQ4FieSmMdgjze1ZR21XW/6/yjNiHAAIIIIAAAghsj0BeBTBa0le9Ej169HB10hAj3XxXRlKvgG7CNcdGQ6H80KPgtdTToFWpNFxJAYyGben5MQcffHAwm3uvVcfUC6EeBN0Q+5v2Uhlz2KCAScFU8Fd2zRHxAYyWBvZzhVSP//u//8vhKuUfop4VPR9HfwqGdOOrOspH79UTofJosQLNRwkmBTxKmi+yvcnfcGt1NJXD93TpvDLafffd3SX0UNJg0mIJWiUumPxQLS2rrKQhaSqr5ruUtTJd8Ph077WynFK27aAVxHwK+3tWUdv56/KKAAIIIIAAAggUgkBezYFRoKBJ55r3oj+917bKSHqGiG5+1Wug5Y798CF/LU3y9pO7/fNg/MpV+jVfv2z7pBtp/+R6v8yu3xfGq8qoSf7B5OdvKFhSYKMVzZTUUxCc16Nllben90XPk9Fk96FDhyYvLzc/j2jlypVuuw8C9PyU4BweLSnsJ93rOTbbmxQYqCdEPT1+BTZ/Ts1zkZXK99lnn/nN7lXtqaWJfdL3ywfK6q1S8vNZ1LZ6BotPChYV8MrBP8PH70t9zbYdNOxOKThnJ6zvWaZtl1oHPiOAAAIIIIAAAvks8OPPvvlcykoom26EtbKXelb0q72GQWmyveZ2tGzZMtm7oeWS/XNCdFOsVbYU/OhPq30pgGjdurW7oVYvhHokwk4KUDQnQ8OXNNFf5VNvgyaM+yBLD4+84oorXPCgngT9KdDSogLKFwxqsimfzjtkyBC3epqWOlYZFAhoWJvOe99997nTaVU09bxoCJaG5Gkuiq6tP6UxY8ZUOPzKZczgHy0nrQBOyx6rPBqapl4qBWoqU+qDR3VK9ewpgNK8m+rVqyefP6NeGS1+oKS6aKU0rd6lB2Pqu6BhZXvttZdrXwXTEyZMcHnL+ifbdtCQOFmqzBrOKCf1CIbxPcu07cqqC9sRQAABBBBAAIF8FMirHpiogXSjrRtvBTNKutnWL+8aCqVfxvWMEt3QBud0aGK0bjIVuOhmXUGCkm6kldevOKYb6bKS3xc8bzCv3++3aUiRbrLVu6AVxhS86EZcT1tXz4CSbrb982F0I6/nwKh8eg7MJ4nVuZT8eVNf3c4f/vH7fNlGjBjh6isPBXq6ydYNt8wU0Pg5KRqmpGV8FfApWNBcEHnqpl+Oeu6JT/4a/tVvz/RVD8TUymBa/lkmeg6MXhXcKahMHSqm8yqwVG+Ryq7nz6g+GtLmh3z5a2vJZD24UwsyqFdu7733dsGLzqkeG78ogy+7f/XHZ9MOOkYPtPSLGWhInoIypTC+Z5m2nbsg/yCAAAIIIIAAAgUiUJS40Sz7TrtAKhFGMXXDrXksGpqk3pjUCd/prqFliXVTr+ClMpKe0aKlfKcm5gJp6JJ6DnRDrR4HzdMoK+kmXcOePv744+QNd1l5s9muCfKqr3p3gvNx0p1DD/iUYXnlTHdcttu8iQKpdGXS0swK+LTanIaeKXjRAgCZtJkCGAWBOrcPXLIpXzbtoKBTDybV0LzUeoTxPcum7bKpI3kRQAABBBBAAIGoBQhgohbP4nqpAUwWh5L1B4HUAAYYBBBAAAEEEEAAgcIWiPUQssJuOkqPAAIIIIAAAggggED8BGI7ib8QmlpLAWvCfhirdxVCfSujjJrIrqFZweWWK+M6nBMBBBBAAAEEEEAgGgGGkEXjzFUQQAABBBBAAAEEEEAgBAGGkIWAyCkQQAABBBBAAAEEEEAgGgECmGicuQoCCCCAAAIIIIAAAgiEIEAAEwIip0AAAQQQQAABBBBAAIFoBAhgonHmKggggAACCCCAAAIIIBCCAAFMCIicAgEEEEAAAQQQQAABBKIRIICJxpmrIIAAAggggAACCCCAQAgCBDAhIHIKBBBAAAEEEEAAAQQQiEaAACYaZ66CAAIIIIAAAggggAACIQgQwISAyCkQQAABBBBAAAEEEEAgGgECmGicuQoCCCCAAAIIIIAAAgiEIEAAEwIip0AAAQQQQAABBBBAAIFoBAhgonHmKggggAACCCCAAAIIIBCCAAFMCIicAgEEEEAAAQQQQAABBKIRIICJxpmrIIAAAggggAACCCCAQAgCBDAhIHIKBBBAAAEEEEAAAQQQiEaAACYaZ66CAAIIIIAAAggggAACIQgQwISAyCkQQAABBBBAAAEEEEAgGgECmGicuQoCCCCAAAIIIIAAAgiEIEAAEwIip0AAAQQQQAABBBBAAIFoBAhgonHmKggggAACCCCAAAIIIBCCAAFMCIicAgEEEEAAAQQQQAABBKIRIICJxpmrIIAAAggggAACCCCAQAgC/w/3TjIApDI1GwAAAABJRU5ErkJggg==;" vertex="1" parent="WIyWlLk6GJQsqaUBKTNV-1">
          <mxGeometry x="12" y="-380" width="466.99" height="190" as="geometry" />
        </mxCell>
        <mxCell id="onYP9hCPlnCMmtd_44-D-2" value="Start" style="text;html=1;align=center;verticalAlign=middle;whiteSpace=wrap;rounded=0;" vertex="1" parent="WIyWlLk6GJQsqaUBKTNV-1">
          <mxGeometry x="384" y="-115" width="60" height="30" as="geometry" />
        </mxCell>
        <mxCell id="onYP9hCPlnCMmtd_44-D-8" value="" style="edgeStyle=orthogonalEdgeStyle;rounded=0;orthogonalLoop=1;jettySize=auto;html=1;" edge="1" parent="WIyWlLk6GJQsqaUBKTNV-1" source="onYP9hCPlnCMmtd_44-D-5" target="onYP9hCPlnCMmtd_44-D-7">
          <mxGeometry relative="1" as="geometry" />
        </mxCell>
        <mxCell id="onYP9hCPlnCMmtd_44-D-5" value="" style="ellipse;whiteSpace=wrap;html=1;" vertex="1" parent="WIyWlLk6GJQsqaUBKTNV-1">
          <mxGeometry x="374" y="20" width="80" height="80" as="geometry" />
        </mxCell>
        <mxCell id="onYP9hCPlnCMmtd_44-D-7" value="Input: number&lt;div&gt;(number_1)&lt;/div&gt;" style="shape=parallelogram;perimeter=parallelogramPerimeter;whiteSpace=wrap;html=1;fixedSize=1;" vertex="1" parent="WIyWlLk6GJQsqaUBKTNV-1">
          <mxGeometry x="354" y="190" width="120" height="60" as="geometry" />
        </mxCell>
        <mxCell id="onYP9hCPlnCMmtd_44-D-33" value="" style="edgeStyle=orthogonalEdgeStyle;rounded=0;orthogonalLoop=1;jettySize=auto;html=1;" edge="1" parent="WIyWlLk6GJQsqaUBKTNV-1" source="onYP9hCPlnCMmtd_44-D-9" target="onYP9hCPlnCMmtd_44-D-32">
          <mxGeometry relative="1" as="geometry" />
        </mxCell>
        <mxCell id="onYP9hCPlnCMmtd_44-D-9" value="is_number_valid&lt;div&gt;(number_1)&lt;/div&gt;" style="rhombus;whiteSpace=wrap;html=1;" vertex="1" parent="WIyWlLk6GJQsqaUBKTNV-1">
          <mxGeometry x="320" y="320" width="190" height="80" as="geometry" />
        </mxCell>
        <mxCell id="onYP9hCPlnCMmtd_44-D-12" value="" style="endArrow=classic;html=1;rounded=0;exitX=0.5;exitY=1;exitDx=0;exitDy=0;entryX=0.5;entryY=0;entryDx=0;entryDy=0;" edge="1" parent="WIyWlLk6GJQsqaUBKTNV-1" source="onYP9hCPlnCMmtd_44-D-7" target="onYP9hCPlnCMmtd_44-D-9">
          <mxGeometry width="50" height="50" relative="1" as="geometry">
            <mxPoint x="290" y="50" as="sourcePoint" />
            <mxPoint x="340" as="targetPoint" />
          </mxGeometry>
        </mxCell>
        <mxCell id="onYP9hCPlnCMmtd_44-D-45" value="" style="edgeStyle=orthogonalEdgeStyle;rounded=0;orthogonalLoop=1;jettySize=auto;html=1;" edge="1" parent="WIyWlLk6GJQsqaUBKTNV-1" source="onYP9hCPlnCMmtd_44-D-32" target="onYP9hCPlnCMmtd_44-D-35">
          <mxGeometry relative="1" as="geometry" />
        </mxCell>
        <mxCell id="onYP9hCPlnCMmtd_44-D-32" value="" style="ellipse;whiteSpace=wrap;html=1;aspect=fixed;" vertex="1" parent="WIyWlLk6GJQsqaUBKTNV-1">
          <mxGeometry x="390" y="440" width="50" height="50" as="geometry" />
        </mxCell>
        <mxCell id="onYP9hCPlnCMmtd_44-D-34" value="" style="edgeStyle=orthogonalEdgeStyle;rounded=0;orthogonalLoop=1;jettySize=auto;html=1;" edge="1" parent="WIyWlLk6GJQsqaUBKTNV-1" source="onYP9hCPlnCMmtd_44-D-35" target="onYP9hCPlnCMmtd_44-D-40">
          <mxGeometry relative="1" as="geometry" />
        </mxCell>
        <mxCell id="onYP9hCPlnCMmtd_44-D-35" value="Input: number&lt;div&gt;(number_2)&lt;/div&gt;" style="shape=parallelogram;perimeter=parallelogramPerimeter;whiteSpace=wrap;html=1;fixedSize=1;" vertex="1" parent="WIyWlLk6GJQsqaUBKTNV-1">
          <mxGeometry x="355" y="540" width="120" height="60" as="geometry" />
        </mxCell>
        <mxCell id="onYP9hCPlnCMmtd_44-D-39" value="" style="edgeStyle=orthogonalEdgeStyle;rounded=0;orthogonalLoop=1;jettySize=auto;html=1;" edge="1" parent="WIyWlLk6GJQsqaUBKTNV-1" target="onYP9hCPlnCMmtd_44-D-40">
          <mxGeometry relative="1" as="geometry">
            <mxPoint x="416" y="710" as="sourcePoint" />
            <mxPoint x="416" y="800" as="targetPoint" />
          </mxGeometry>
        </mxCell>
        <mxCell id="onYP9hCPlnCMmtd_44-D-49" value="" style="edgeStyle=orthogonalEdgeStyle;rounded=0;orthogonalLoop=1;jettySize=auto;html=1;" edge="1" parent="WIyWlLk6GJQsqaUBKTNV-1" source="onYP9hCPlnCMmtd_44-D-40" target="onYP9hCPlnCMmtd_44-D-48">
          <mxGeometry relative="1" as="geometry" />
        </mxCell>
        <mxCell id="onYP9hCPlnCMmtd_44-D-40" value="is_number_valid&lt;div&gt;(number_2)&lt;/div&gt;" style="rhombus;whiteSpace=wrap;html=1;" vertex="1" parent="WIyWlLk6GJQsqaUBKTNV-1">
          <mxGeometry x="320" y="660" width="190" height="80" as="geometry" />
        </mxCell>
        <mxCell id="onYP9hCPlnCMmtd_44-D-42" value="" style="edgeStyle=orthogonalEdgeStyle;rounded=0;orthogonalLoop=1;jettySize=auto;html=1;" edge="1" parent="WIyWlLk6GJQsqaUBKTNV-1" source="onYP9hCPlnCMmtd_44-D-43" target="onYP9hCPlnCMmtd_44-D-44">
          <mxGeometry relative="1" as="geometry" />
        </mxCell>
        <mxCell id="onYP9hCPlnCMmtd_44-D-43" value="Input: number&lt;div&gt;(number_3)&lt;/div&gt;" style="shape=parallelogram;perimeter=parallelogramPerimeter;whiteSpace=wrap;html=1;fixedSize=1;" vertex="1" parent="WIyWlLk6GJQsqaUBKTNV-1">
          <mxGeometry x="355" y="890" width="120" height="60" as="geometry" />
        </mxCell>
        <mxCell id="onYP9hCPlnCMmtd_44-D-65" value="" style="edgeStyle=orthogonalEdgeStyle;rounded=0;orthogonalLoop=1;jettySize=auto;html=1;" edge="1" parent="WIyWlLk6GJQsqaUBKTNV-1" source="onYP9hCPlnCMmtd_44-D-44" target="onYP9hCPlnCMmtd_44-D-64">
          <mxGeometry relative="1" as="geometry" />
        </mxCell>
        <mxCell id="onYP9hCPlnCMmtd_44-D-44" value="is_number_valid&lt;div&gt;(number_3)&lt;/div&gt;" style="rhombus;whiteSpace=wrap;html=1;" vertex="1" parent="WIyWlLk6GJQsqaUBKTNV-1">
          <mxGeometry x="320" y="1010" width="190" height="80" as="geometry" />
        </mxCell>
        <mxCell id="onYP9hCPlnCMmtd_44-D-52" value="" style="edgeStyle=orthogonalEdgeStyle;rounded=0;orthogonalLoop=1;jettySize=auto;html=1;" edge="1" parent="WIyWlLk6GJQsqaUBKTNV-1" source="onYP9hCPlnCMmtd_44-D-48" target="onYP9hCPlnCMmtd_44-D-43">
          <mxGeometry relative="1" as="geometry" />
        </mxCell>
        <mxCell id="onYP9hCPlnCMmtd_44-D-48" value="" style="ellipse;whiteSpace=wrap;html=1;aspect=fixed;" vertex="1" parent="WIyWlLk6GJQsqaUBKTNV-1">
          <mxGeometry x="390" y="790" width="50" height="50" as="geometry" />
        </mxCell>
        <mxCell id="onYP9hCPlnCMmtd_44-D-53" value="" style="endArrow=classic;html=1;rounded=0;exitX=0;exitY=0.5;exitDx=0;exitDy=0;" edge="1" parent="WIyWlLk6GJQsqaUBKTNV-1" source="onYP9hCPlnCMmtd_44-D-9">
          <mxGeometry width="50" height="50" relative="1" as="geometry">
            <mxPoint x="250" y="350" as="sourcePoint" />
            <mxPoint x="370" y="60" as="targetPoint" />
            <Array as="points">
              <mxPoint x="220" y="360" />
              <mxPoint x="220" y="60" />
            </Array>
          </mxGeometry>
        </mxCell>
        <mxCell id="onYP9hCPlnCMmtd_44-D-55" value="No" style="text;html=1;align=center;verticalAlign=middle;whiteSpace=wrap;rounded=0;" vertex="1" parent="WIyWlLk6GJQsqaUBKTNV-1">
          <mxGeometry x="240" y="330" width="60" height="30" as="geometry" />
        </mxCell>
        <mxCell id="onYP9hCPlnCMmtd_44-D-56" value="No" style="text;html=1;align=center;verticalAlign=middle;whiteSpace=wrap;rounded=0;" vertex="1" parent="WIyWlLk6GJQsqaUBKTNV-1">
          <mxGeometry x="240" y="670" width="60" height="30" as="geometry" />
        </mxCell>
        <mxCell id="onYP9hCPlnCMmtd_44-D-57" value="Yes" style="text;html=1;align=center;verticalAlign=middle;whiteSpace=wrap;rounded=0;" vertex="1" parent="WIyWlLk6GJQsqaUBKTNV-1">
          <mxGeometry x="430" y="750" width="60" height="30" as="geometry" />
        </mxCell>
        <mxCell id="onYP9hCPlnCMmtd_44-D-58" value="Yes" style="text;html=1;align=center;verticalAlign=middle;whiteSpace=wrap;rounded=0;" vertex="1" parent="WIyWlLk6GJQsqaUBKTNV-1">
          <mxGeometry x="430" y="400" width="60" height="30" as="geometry" />
        </mxCell>
        <mxCell id="onYP9hCPlnCMmtd_44-D-60" value="" style="endArrow=classic;html=1;rounded=0;exitX=0;exitY=0.5;exitDx=0;exitDy=0;entryX=0;entryY=0.5;entryDx=0;entryDy=0;" edge="1" parent="WIyWlLk6GJQsqaUBKTNV-1" target="onYP9hCPlnCMmtd_44-D-32">
          <mxGeometry width="50" height="50" relative="1" as="geometry">
            <mxPoint x="320" y="700" as="sourcePoint" />
            <mxPoint x="370" y="400" as="targetPoint" />
            <Array as="points">
              <mxPoint x="220" y="700" />
              <mxPoint x="220" y="465" />
            </Array>
          </mxGeometry>
        </mxCell>
        <mxCell id="onYP9hCPlnCMmtd_44-D-61" value="" style="endArrow=classic;html=1;rounded=0;exitX=0;exitY=0.5;exitDx=0;exitDy=0;entryX=0;entryY=0.5;entryDx=0;entryDy=0;" edge="1" parent="WIyWlLk6GJQsqaUBKTNV-1" source="onYP9hCPlnCMmtd_44-D-44">
          <mxGeometry width="50" height="50" relative="1" as="geometry">
            <mxPoint x="320" y="1055" as="sourcePoint" />
            <mxPoint x="390" y="820" as="targetPoint" />
            <Array as="points">
              <mxPoint x="220" y="1050" />
              <mxPoint x="220" y="820" />
            </Array>
          </mxGeometry>
        </mxCell>
        <mxCell id="onYP9hCPlnCMmtd_44-D-62" value="No" style="text;html=1;align=center;verticalAlign=middle;whiteSpace=wrap;rounded=0;" vertex="1" parent="WIyWlLk6GJQsqaUBKTNV-1">
          <mxGeometry x="250" y="1020" width="60" height="30" as="geometry" />
        </mxCell>
        <mxCell id="onYP9hCPlnCMmtd_44-D-63" value="Yes" style="text;html=1;align=center;verticalAlign=middle;whiteSpace=wrap;rounded=0;" vertex="1" parent="WIyWlLk6GJQsqaUBKTNV-1">
          <mxGeometry x="414" y="1120" width="60" height="30" as="geometry" />
        </mxCell>
        <mxCell id="onYP9hCPlnCMmtd_44-D-71" value="" style="edgeStyle=orthogonalEdgeStyle;rounded=0;orthogonalLoop=1;jettySize=auto;html=1;" edge="1" parent="WIyWlLk6GJQsqaUBKTNV-1" source="onYP9hCPlnCMmtd_44-D-64" target="onYP9hCPlnCMmtd_44-D-70">
          <mxGeometry relative="1" as="geometry" />
        </mxCell>
        <mxCell id="onYP9hCPlnCMmtd_44-D-64" value="find_largest_number" style="whiteSpace=wrap;html=1;" vertex="1" parent="WIyWlLk6GJQsqaUBKTNV-1">
          <mxGeometry x="355" y="1180" width="120" height="60" as="geometry" />
        </mxCell>
        <mxCell id="onYP9hCPlnCMmtd_44-D-70" value="Output: result" style="shape=parallelogram;perimeter=parallelogramPerimeter;whiteSpace=wrap;html=1;fixedSize=1;" vertex="1" parent="WIyWlLk6GJQsqaUBKTNV-1">
          <mxGeometry x="355" y="1320" width="120" height="60" as="geometry" />
        </mxCell>
      </root>
    </mxGraphModel>
  </diagram>
</mxfile>
